<svg xmlns="http://www.w3.org/2000/svg" width="162" height="77" fill="none"><path fill="#0079C2" d="M50.036 50.343h10.282v3.321h-4.891V77h-5.39V50.343ZM66.413 66.993l.924-13.329h.31l.923 13.329h-2.157ZM60.443 77h5.279l.499-7.08h2.542l.501 7.08h5.276l-2.811-26.657h-8.474L60.444 77ZM82.26 67.67v5.025c0 .678.53.875.84.875a.862.862 0 0 0 .862-.874V66.49c0-.83-.155-1.748-2.166-1.748h-2.188v-2.928h2.276c1.525 0 2.078-.35 2.078-1.988v-5.288a.862.862 0 0 0-.862-.874c-.31 0-.84.175-.84.874v4.348h-5.393v-3.78c0-1.857.221-4.763 4-4.763h4.465c3.779 0 4.022 2.906 4.022 4.763v4.26c0 2.907-2.055 3.694-3.669 3.628v.262c3.625-.087 3.67 2.666 3.67 3.606v5.375c0 1.879-.244 4.763-4.023 4.763h-4.465c-3.779 0-4-2.884-4-4.763V67.67h5.393ZM92.89 50.343h12.487V77h-5.392V53.664h-1.702V77H92.89V50.343ZM114.306 65.004v-11.34h.707c.575 0 .995.48.995 1.333v8.674c0 .852-.42 1.333-.995 1.333h-.707ZM108.913 77h5.393v-9.068h3.094c3.757 0 4-2.884 4-4.763v-8.063c0-1.857-.243-4.763-4-4.763h-8.487V77ZM132.031 72.695a.863.863 0 0 1-.862.875c-.309 0-.84-.197-.84-.874V54.537c0-.7.531-.874.84-.874.508 0 .862.415.862.874v18.157Zm-7.094-.458c0 1.879.243 4.763 4 4.763h4.486c3.758 0 4.001-2.884 4.001-4.763v-17.13c0-1.858-.243-4.764-4.001-4.764h-4.486c-3.757 0-4 2.906-4 4.763v17.13ZM154.972 50.343H162V77h-5.393V60.285h-.198L153.624 77h-4.31l-2.762-16.715h-.199V77h-5.393V50.343h7.006l3.514 18.747 3.492-18.747ZM43.048 13.897C41.398 6.752 37.26.94 36.69 0c-.902 1.333-4.202 6.468-5.88 12.149-1.831 6.358-2.1 11.995-1.469 17.524.628 5.55 3 11.252 3 11.252 1.26 2.972 3.146 6.184 4.375 7.757 1.801-2.316 5.941-9.22 7.232-18.223.718-5.025.749-9.417-.9-16.562ZM36.69 46.89c-.811-1.508-2.071-4.37-2.19-8.828-.031-4.283 1.708-7.975 2.216-8.74.453.765 1.952 3.977 2.13 8.368.122 4.283-1.319 7.67-2.156 9.2Zm5.879-20.867c-.062 2.73-.392 5.615-.812 7.341.15-2.971-.21-7.145-.899-10.422-.69-3.256-2.641-8.719-4.2-11.231-1.438 2.403-3.21 7.123-4.139 11.209-.932 4.086-.959 9.046-.959 10.532-.247-1.246-.866-5.725-.692-10.204.146-3.693 1.021-7.517 1.501-9.265 1.83-5.834 3.9-9.57 4.29-10.16.389.59 2.997 5.2 4.35 10.029 1.345 4.829 1.617 9.461 1.56 12.17Z"/><path fill="#0079C2" d="M39.49 50.343H26.939v8.325c.01 0 .02-.022.03-.022 2.958-2.928 7.754-2.928 10.713 0 2.957 2.906 2.957 7.648 0 10.576-.013.021-.026.021-.04.043-.015 0-.03.022-.044.044-2.95 2.884-6.805 4.326-10.66 4.326-3.871 0-7.743-1.442-10.696-4.37a14.823 14.823 0 0 1-1.854-18.922 15.18 15.18 0 0 1 1.854-2.229c2.953-2.928 6.825-4.37 10.697-4.37V23.73C12.06 23.73 0 35.638 0 50.343s12.06 26.635 26.939 26.635a27.041 27.041 0 0 0 19.66-8.434V50.343H39.49Z"/></svg>