<svg width="107" height="64" viewBox="0 0 107 64" fill="none" xmlns="http://www.w3.org/2000/svg">
<path fill-rule="evenodd" clip-rule="evenodd" d="M13.6833 0H22.309C22.309 3.91979 22.309 7.85571 22.309 11.7755C22.26 12.211 22.5377 12.695 23.0114 12.7272C24.0406 12.8563 25.0862 12.6466 26.1317 12.7595C29.1539 12.7272 32.1925 12.7433 35.2148 12.7595C35.2148 15.5824 35.2148 18.4214 35.2148 21.2443C31.147 21.2443 27.0792 21.2443 23.0114 21.2443C20.4956 21.3088 18.0125 20.1958 16.2972 18.3891C14.5982 16.6793 13.6833 14.2919 13.667 11.9207C13.6833 7.95249 13.6833 3.98431 13.6833 0ZM51.9759 0H60.6343C60.6343 3.91979 60.6343 7.85571 60.6343 11.7755C60.6179 12.0981 60.6833 12.5014 61.0263 12.6466C61.6798 12.8563 62.3823 12.7272 63.0684 12.7433C65.0288 12.7917 66.9891 12.7433 68.9495 12.7595C70.4525 12.7433 71.9717 12.8401 73.4747 12.7111C73.6054 14.2758 73.491 15.8566 73.5074 17.4374C73.6217 18.7117 73.4257 19.9699 73.54 21.2443C69.8317 21.2604 66.1233 21.2604 62.4149 21.2443C62.2352 18.4859 60.9447 15.8243 58.9026 13.9532C57.0402 12.1949 54.5408 11.1464 51.9759 10.9367C51.9759 7.29113 51.9759 3.64556 51.9759 0Z" fill="#F15A22"/>
<path fill-rule="evenodd" clip-rule="evenodd" d="M0.810282 12.7114C4.50232 12.7437 8.17801 12.7598 11.87 12.7276C12.0824 15.1633 13.0299 17.5345 14.6963 19.3573C16.6076 21.4866 19.3848 22.9222 22.2764 23.0351C22.3417 31.9071 22.2764 40.7952 22.309 49.6833C22.26 50.1672 22.6684 50.6511 23.1749 50.5866C27.1936 50.5866 31.1961 50.5866 35.2148 50.5866C35.2148 53.4417 35.2148 56.2969 35.2148 59.152C31.098 59.152 26.9649 59.1682 22.8481 59.152C19.4502 59.1037 16.1829 57.0389 14.6799 54.0224C13.8958 52.5545 13.6344 50.8608 13.6671 49.2155C13.6671 40.1822 13.6671 31.1489 13.6671 22.0996C13.7324 21.5834 13.226 21.2285 12.7359 21.2608C8.74979 21.2446 4.78004 21.2608 0.793945 21.2608V12.7114H0.810282ZM39.0866 12.7759C41.243 12.6953 43.4157 12.8082 45.5721 12.7437C46.3889 12.6792 47.2058 12.8243 48.0226 12.7598C48.7251 12.6953 49.4275 12.7598 50.1463 12.7598C51.8126 12.663 53.5116 12.8405 55.0473 13.5341C57.7754 14.7278 59.8502 17.2764 60.4383 20.1639C60.6997 21.5995 60.6343 23.0674 60.6343 24.5192C60.6343 27.4711 60.6343 30.4392 60.6343 33.3911C60.6343 33.617 60.6016 33.8589 60.5526 34.0848C57.6938 34.0525 54.8349 34.0686 51.9923 34.0686C51.9597 30.0682 51.9923 26.0839 51.976 22.0834C52.0087 21.5511 51.4532 21.1962 50.9631 21.2446C47.0097 21.2446 43.04 21.2446 39.0866 21.2446C39.0866 18.4217 39.0866 15.5988 39.0866 12.7759ZM68.1001 47.554C69.1293 47.1346 70.2892 47.2636 71.3184 47.554C71.1877 48.0863 71.0243 48.6025 70.9099 49.1348C69.4233 48.5702 67.7733 48.8122 66.3684 49.4736C66.3684 52.732 66.3684 55.9904 66.3684 59.2488C65.8456 59.2488 65.3229 59.2488 64.8001 59.2488C64.8001 56.0549 64.8001 52.861 64.8001 49.6671C64.8491 48.9896 64.4407 48.3928 64.3754 47.7314C64.8655 47.6185 65.3556 47.4895 65.8456 47.4249C65.96 47.8605 66.0743 48.296 66.2214 48.7315C66.8422 48.3283 67.3976 47.8282 68.1001 47.554ZM77.2812 47.2959C78.4084 47.2959 79.6336 47.3443 80.6138 47.9734C81.5286 48.5541 81.9534 49.6187 82.1331 50.6188C82.4271 52.3448 82.4271 54.1031 82.1821 55.8291C82.0351 56.8453 81.7083 57.9261 80.9078 58.6359C79.944 59.4424 78.6207 59.5231 77.4118 59.5714C76.0723 59.5392 74.504 59.394 73.6055 58.281C72.5763 56.9421 72.5599 55.1677 72.5272 53.5708C72.5436 51.9416 72.5109 50.1511 73.4748 48.7315C74.3242 47.5217 75.9252 47.2959 77.2812 47.2959ZM75.9416 48.8444C75.3044 48.9574 74.749 49.4252 74.5693 50.0381C74.1936 51.2318 74.2589 52.49 74.2589 53.716C74.2426 54.7483 74.2589 55.7968 74.553 56.7969C74.7 57.3615 75.1411 57.8293 75.7129 57.9422C76.8074 58.1681 77.9509 58.1681 79.0618 57.9745C79.6336 57.8938 80.1237 57.4906 80.3034 56.9583C80.7118 55.8614 80.6465 54.6838 80.6465 53.5546C80.6301 52.3448 80.7281 51.0866 80.2871 49.9252C80.0583 49.28 79.4049 48.8606 78.7351 48.8122C77.8039 48.7315 76.8564 48.7154 75.9416 48.8444ZM99.123 48.7315C100.054 47.7637 101.41 47.2314 102.75 47.2959C103.861 47.2959 105.086 47.5379 105.837 48.4089C106.752 49.4897 106.899 50.9737 106.997 52.3287V54.587C106.883 55.8614 106.752 57.2486 105.935 58.3132C105.347 59.1037 104.334 59.4424 103.37 59.5231C101.835 59.7328 100.185 59.2488 99.1066 58.1197C99.1066 59.9586 99.1066 61.8136 99.1066 63.6687C98.6002 63.6687 98.0774 63.6687 97.571 63.6687C97.571 58.3294 97.571 52.9901 97.571 47.6346C98.0774 47.6346 98.6002 47.6346 99.1066 47.6346C99.1066 47.9895 99.1066 48.3605 99.123 48.7315ZM99.1066 49.4897C99.1066 52.1029 99.123 54.7161 99.1066 57.3293C100.397 58.0713 101.965 58.2649 103.419 58.0229C104.024 57.9745 104.645 57.668 104.873 57.0873C105.347 55.9743 105.265 54.7322 105.314 53.5546C105.282 52.3771 105.347 51.1834 105.004 50.0381C104.841 49.4574 104.351 48.9896 103.746 48.8606C102.194 48.6186 100.512 48.6993 99.1066 49.4897ZM52.1394 49.3929C52.7275 48.1347 54.2468 47.6669 55.5537 47.6508C57.8081 47.6024 60.0462 47.6185 62.3006 47.6508C62.2843 48.0702 62.2516 48.5057 62.2026 48.9251C61.3858 48.909 60.5526 48.909 59.7358 48.9251C60.4383 49.6026 61.0591 50.4414 61.1407 51.4415C61.1898 52.3771 61.0264 53.3933 60.3566 54.1031C59.7031 54.7967 58.7393 55.0709 57.8245 55.2C56.5502 55.3613 55.2433 55.3129 53.9854 55.0548C53.9527 55.571 53.8057 56.1356 54.0507 56.6195C54.3938 56.9421 54.9002 56.9744 55.3576 57.0228C57.1056 57.1518 58.9517 56.8937 60.6016 57.5712C61.4511 57.91 61.9249 58.7972 61.9902 59.6682C62.0719 60.7167 61.9902 61.9104 61.2061 62.7008C60.3076 63.6042 58.9353 63.7655 57.7264 63.8784H55.619C54.4755 63.7816 53.2012 63.6525 52.3354 62.846C51.6166 62.1685 51.5676 61.1039 51.7146 60.2006C51.927 59.2811 52.6621 58.6036 53.43 58.0874C52.9072 57.8293 52.4008 57.4099 52.3844 56.7808C52.2537 55.9581 52.8582 55.2968 53.479 54.8612C52.7928 54.5386 52.1884 53.9741 51.976 53.232C51.6003 51.99 51.6003 50.5866 52.1394 49.3929ZM53.5443 49.9897C53.3319 50.9898 53.2993 52.0545 53.6423 53.0223C54.2141 53.9902 55.5373 53.845 56.5012 53.9095C57.4487 53.8127 58.8536 53.974 59.2947 52.8933C59.6378 51.5867 59.4581 50.1833 59.0007 48.9412C57.7918 48.8928 56.5829 48.909 55.374 48.9412C54.6552 48.9574 53.7567 49.2155 53.5443 49.9897ZM53.675 61.7007C54.3775 62.4911 55.5373 62.3298 56.5012 62.4589C57.4487 62.4266 58.4289 62.4427 59.3274 62.104C59.9809 61.862 60.3403 61.1684 60.3239 60.507C60.3239 59.8779 60.2749 59.0391 59.5888 58.7326C58.723 58.3778 57.7591 58.4746 56.8443 58.4262C55.8477 58.4584 54.8512 58.3132 53.8547 58.2326C53.4626 59.3134 53.0705 60.6361 53.675 61.7007ZM85.0736 47.6669C85.237 47.6346 85.4167 47.6024 85.5964 47.5701C85.9558 47.6185 86.3152 47.6346 86.6746 47.6346C86.6746 49.8768 86.6746 52.119 86.6746 54.3612C86.6909 55.2323 86.7073 56.1356 86.9687 56.9744C87.1647 57.6196 87.8508 57.8938 88.4716 57.9584C89.9092 58.0551 91.4285 58.0713 92.7354 57.3615C92.7191 54.1192 92.7354 50.8769 92.7354 47.6346C93.2582 47.6185 93.7973 47.6185 94.3201 47.6346C94.3037 50.8931 94.32 54.1676 94.3037 57.426C94.271 58.0068 94.5161 58.5391 94.6794 59.0875C94.1894 59.2004 93.6829 59.3134 93.1928 59.4585C93.0295 59.0069 92.8824 58.5552 92.7354 58.1035C91.5592 59.265 89.8275 59.765 88.1939 59.5069C87.2954 59.4424 86.3642 59.0714 85.8904 58.281C85.0573 56.9099 85.2043 55.2645 85.0736 53.7321C85.0736 51.6996 85.0736 49.6833 85.0736 47.6669Z" fill="#F3F3F3"/>
</svg>
