<svg width="128" height="77" viewBox="0 0 128 77" fill="none" xmlns="http://www.w3.org/2000/svg">
<path fill-rule="evenodd" clip-rule="evenodd" d="M15.5176 0H25.9152C25.9152 4.725 25.9152 9.46945 25.9152 14.1944C25.8561 14.7194 26.1908 15.3028 26.7619 15.3417C28.0025 15.4972 29.2628 15.2444 30.5232 15.3806C34.1662 15.3417 37.829 15.3611 41.4721 15.3806C41.4721 18.7833 41.4721 22.2056 41.4721 25.6083C36.5687 25.6083 31.6653 25.6083 26.7619 25.6083C23.7293 25.6861 20.7361 24.3444 18.6684 22.1667C16.6204 20.1056 15.5176 17.2278 15.4979 14.3694C15.5176 9.58611 15.5176 4.80278 15.5176 0ZM61.6764 0H72.1133C72.1133 4.725 72.1133 9.46945 72.1133 14.1944C72.0936 14.5833 72.1724 15.0694 72.5859 15.2444C73.3736 15.4972 74.2204 15.3417 75.0475 15.3611C77.4105 15.4194 79.7736 15.3611 82.1367 15.3806C83.9484 15.3611 85.7798 15.4778 87.5915 15.3222C87.749 17.2083 87.6112 19.1139 87.6309 21.0194C87.7687 22.5556 87.5324 24.0722 87.6702 25.6083C83.2001 25.6278 78.7299 25.6278 74.2598 25.6083C74.0432 22.2833 72.4875 19.075 70.0259 16.8194C67.781 14.7 64.7681 13.4361 61.6764 13.1833C61.6764 8.78889 61.6764 4.39444 61.6764 0Z" fill="#F15A22"/>
<path fill-rule="evenodd" clip-rule="evenodd" d="M3.8987e-05 15.3223C4.4505 15.3612 8.88127 15.3806 13.3317 15.3417C13.5877 18.2778 14.7299 21.1362 16.7385 23.3334C19.0425 25.9 22.3902 27.6306 25.8757 27.7667C25.9545 38.4612 25.8757 49.175 25.9151 59.8889C25.856 60.4723 26.3483 61.0556 26.9588 60.9778C31.8031 60.9778 36.6277 60.9778 41.472 60.9778C41.472 64.4195 41.472 67.8612 41.472 71.3028C36.5096 71.3028 31.5274 71.3223 26.565 71.3028C22.469 71.2445 18.5305 68.7556 16.7188 65.1195C15.7736 63.35 15.4585 61.3084 15.4979 59.325C15.4979 48.4362 15.4979 37.5473 15.4979 26.6389C15.5767 26.0167 14.9662 25.5889 14.3754 25.6278C9.5705 25.6084 4.78527 25.6278 -0.0196533 25.6278V15.3223H3.8987e-05ZM46.1391 15.4C48.7385 15.3028 51.3576 15.4389 53.957 15.3612C54.9416 15.2834 55.9262 15.4584 56.9108 15.3806C57.7576 15.3028 58.6043 15.3806 59.4708 15.3806C61.4794 15.2639 63.5274 15.4778 65.3785 16.3139C68.6671 17.7528 71.168 20.825 71.877 24.3056C72.192 26.0362 72.1133 27.8056 72.1133 29.5556C72.1133 33.1139 72.1133 36.6917 72.1133 40.25C72.1133 40.5223 72.0739 40.8139 72.0148 41.0862C68.5687 41.0473 65.1225 41.0667 61.696 41.0667C61.6567 36.2445 61.696 31.4417 61.6763 26.6195C61.7157 25.9778 61.0462 25.55 60.4554 25.6084C55.6899 25.6084 50.9047 25.6084 46.1391 25.6084C46.1391 22.2056 46.1391 18.8028 46.1391 15.4ZM81.1127 57.3223C82.3533 56.8167 83.7514 56.9723 84.992 57.3223C84.8345 57.9639 84.6376 58.5862 84.4997 59.2278C82.7077 58.5473 80.7188 58.8389 79.0253 59.6362C79.0253 63.5639 79.0253 67.4917 79.0253 71.4195C78.3951 71.4195 77.765 71.4195 77.1348 71.4195C77.1348 67.5695 77.1348 63.7195 77.1348 59.8695C77.1939 59.0528 76.7016 58.3334 76.6228 57.5362C77.2136 57.4 77.8044 57.2445 78.3951 57.1667C78.533 57.6917 78.6708 58.2167 78.848 58.7417C79.5963 58.2556 80.2659 57.6528 81.1127 57.3223ZM92.1797 57.0112C93.5385 57.0112 95.0154 57.0695 96.197 57.8278C97.2997 58.5278 97.8117 59.8112 98.0283 61.0167C98.3828 63.0973 98.3828 65.2167 98.0874 67.2973C97.9102 68.5223 97.5163 69.825 96.5514 70.6806C95.3896 71.6528 93.7945 71.75 92.3373 71.8084C90.7225 71.7695 88.832 71.5945 87.749 70.2528C86.5083 68.6389 86.4887 66.5 86.4493 64.575C86.469 62.6112 86.4296 60.4528 87.5914 58.7417C88.6154 57.2834 90.5453 57.0112 92.1797 57.0112ZM90.565 58.8778C89.797 59.0139 89.1274 59.5778 88.9108 60.3167C88.4579 61.7556 88.5367 63.2723 88.5367 64.75C88.517 65.9945 88.5367 67.2584 88.8911 68.4639C89.0683 69.1445 89.6 69.7084 90.2893 69.8445C91.6087 70.1167 92.9871 70.1167 94.3262 69.8834C95.0154 69.7862 95.6062 69.3 95.8228 68.6584C96.3151 67.3362 96.2364 65.9167 96.2364 64.5556C96.2167 63.0973 96.3348 61.5806 95.8031 60.1806C95.5274 59.4028 94.7397 58.8973 93.9324 58.8389C92.8099 58.7417 91.6677 58.7223 90.565 58.8778ZM118.508 58.7417C119.631 57.575 121.265 56.9334 122.88 57.0112C124.219 57.0112 125.696 57.3028 126.602 58.3528C127.705 59.6556 127.882 61.4445 128 63.0778V65.8C127.862 67.3362 127.705 69.0084 126.72 70.2917C126.011 71.2445 124.79 71.6528 123.628 71.75C121.777 72.0028 119.788 71.4195 118.489 70.0584C118.489 72.275 118.489 74.5112 118.489 76.7473C117.878 76.7473 117.248 76.7473 116.638 76.7473C116.638 70.3112 116.638 63.875 116.638 57.4195C117.248 57.4195 117.878 57.4195 118.489 57.4195C118.489 57.8473 118.489 58.2945 118.508 58.7417ZM118.489 59.6556C118.489 62.8056 118.508 65.9556 118.489 69.1056C120.044 70 121.935 70.2334 123.687 69.9417C124.416 69.8834 125.164 69.5139 125.44 68.8139C126.011 67.4723 125.913 65.975 125.972 64.5556C125.932 63.1362 126.011 61.6973 125.598 60.3167C125.401 59.6167 124.81 59.0528 124.081 58.8973C122.21 58.6056 120.182 58.7028 118.489 59.6556ZM61.8733 59.5389C62.5822 58.0223 64.4136 57.4584 65.989 57.4389C68.7065 57.3806 71.4044 57.4 74.1219 57.4389C74.1022 57.9445 74.0628 58.4695 74.0037 58.975C73.0191 58.9556 72.0148 58.9556 71.0302 58.975C71.877 59.7917 72.6253 60.8028 72.7237 62.0084C72.7828 63.1362 72.5859 64.3611 71.7785 65.2167C70.9908 66.0528 69.829 66.3834 68.7262 66.5389C67.1902 66.7334 65.6148 66.675 64.0985 66.3639C64.0591 66.9862 63.8819 67.6667 64.1773 68.25C64.5908 68.6389 65.2013 68.6778 65.7527 68.7362C67.8597 68.8917 70.085 68.5806 72.0739 69.3973C73.0979 69.8056 73.669 70.875 73.7477 71.925C73.8462 73.1889 73.7477 74.6278 72.8025 75.5806C71.7194 76.6695 70.0653 76.8639 68.608 77H66.0677C64.6893 76.8834 63.1533 76.7278 62.1096 75.7556C61.2431 74.9389 61.184 73.6556 61.3613 72.5667C61.6173 71.4584 62.5034 70.6417 63.429 70.0195C62.7988 69.7084 62.1884 69.2028 62.1687 68.4445C62.0111 67.4528 62.7397 66.6556 63.488 66.1306C62.661 65.7417 61.9324 65.0612 61.6763 64.1667C61.2234 62.6695 61.2234 60.9778 61.8733 59.5389ZM63.5668 60.2584C63.3108 61.4639 63.2714 62.7473 63.685 63.9139C64.3742 65.0806 65.9693 64.9056 67.1311 64.9834C68.2733 64.8667 69.9668 65.0612 70.4985 63.7584C70.912 62.1834 70.6954 60.4917 70.144 58.9945C68.6868 58.9362 67.2296 58.9556 65.7723 58.9945C64.9059 59.0139 63.8228 59.325 63.5668 60.2584ZM63.7243 74.375C64.5711 75.3278 65.9693 75.1334 67.1311 75.2889C68.2733 75.25 69.4548 75.2695 70.5379 74.8612C71.3256 74.5695 71.7588 73.7334 71.7391 72.9362C71.7391 72.1778 71.68 71.1667 70.853 70.7973C69.8093 70.3695 68.6474 70.4862 67.5447 70.4278C66.3434 70.4667 65.1422 70.2917 63.941 70.1945C63.4683 71.4973 62.9957 73.0917 63.7243 74.375ZM101.573 57.4584C101.77 57.4195 101.986 57.3806 102.203 57.3417C102.636 57.4 103.07 57.4195 103.503 57.4195C103.503 60.1223 103.503 62.825 103.503 65.5278C103.522 66.5778 103.542 67.6667 103.857 68.6778C104.094 69.4556 104.921 69.7862 105.669 69.8639C107.402 69.9806 109.233 70 110.809 69.1445C110.789 65.2362 110.809 61.3278 110.809 57.4195C111.439 57.4 112.089 57.4 112.719 57.4195C112.699 61.3473 112.719 65.2945 112.699 69.2223C112.66 69.9223 112.955 70.5639 113.152 71.225C112.561 71.3612 111.951 71.4973 111.36 71.6723C111.163 71.1278 110.986 70.5834 110.809 70.0389C109.391 71.4389 107.303 72.0417 105.334 71.7306C104.251 71.6528 103.129 71.2056 102.558 70.2528C101.553 68.6 101.73 66.6167 101.573 64.7695C101.573 62.3195 101.573 59.8889 101.573 57.4584Z" fill="#65737F"/>
</svg>
