<svg xmlns="http://www.w3.org/2000/svg" width="163" height="38" fill="none"><g clip-path="url(#a)"><path fill="#ED1A3A" d="M43.127.14H.145V44.02h42.982V.14Z"/><path fill="#fff" d="M36.185 4.511c-.988 0-1.736.67-2.108 1.473l-5.412 9.096c-.376.841-.65 1.786-.65 2.412 0 .559.076 1.053.276 1.508l5.855 14.277H11.412c-.818 0-1.494-.839-1.494-1.613V7.07c-.172-3.362-4.905-3.36-5.01.106l.104 26.101c0 2.838 2.149 5.112 4.906 5.112h30.995L33.36 18.654c-.209-.735-.302-1.401.206-2.277l4.999-8.298c.07-.173.172-.904.172-1.115-.099-1.506-1.255-2.52-2.55-2.453Zm-12.272.012c-1.215.008-2.43.866-2.43 2.547v17.599c0 2.555-3.366 2.345-3.366 0v-17.6c0-3.361-4.872-3.361-4.872 0v17.74c0 4.057 2.967 6.755 6.509 6.755 3.638 0 6.595-2.698 6.595-6.754V7.07c0-1.714-1.22-2.555-2.436-2.547ZM51.547 5.296v11.61c0 2.901-.289 4.514-2.603 4.514-.433 0-.722 0-1.155-.16v4.997c.865.325 1.444.325 2.169.325 6.505 0 6.794-5 6.794-7.904v-8.382h3.758v15.961h5.202V5.297H51.547ZM67.448 5.296l7.084 15.158-2.601 5.803h5.637l8.384-20.96h-5.637l-3.036 8.867-3.615-8.868h-6.216ZM87.542 26.257h5.205v-9.03l5.348 9.03h6.648l-7.37-10.802L104.6 5.296h-6.216l-5.637 8.868V5.296h-5.205v20.961Z"/><path fill="#fff" d="M113.273 26.904c6.938 0 10.118-5.483 10.118-11.127 0-5.481-3.18-10.965-10.118-10.965-6.794 0-9.974 5.484-9.974 10.965 0 5.644 3.18 11.127 9.974 11.127Zm0-4.999c-2.314 0-4.626-2.098-4.626-6.128s2.312-5.966 4.626-5.966c2.458 0 4.77 1.936 4.77 5.966s-2.312 6.128-4.77 6.128ZM125.994 5.296v20.961h5.059l7.227-12.575v12.575h5.061V5.297h-5.061l-7.227 12.578V5.296h-5.059Zm8.817-1.128c2.168 0 4.337-.807 5.351-3.227l-3.037-1.288c-.435 1.613-1.735 1.773-2.314 1.773-.433 0-1.879-.16-2.168-1.773L129.609.94c.865 2.42 3.18 3.227 5.202 3.227ZM148.835 5.296v11.61c0 2.901-.292 4.514-2.603 4.514-.433 0-.722 0-1.158-.16v4.997c.868.325 1.447.325 2.169.325 6.505 0 6.794-5 6.794-7.904v-8.382h3.758v15.961H163V5.297h-14.165ZM47.83 38.021h.733v-3.89h4.277v3.89h.732v-7.624h-.732v3.123h-4.277v-3.123h-.732v7.624ZM55.436 38.021h4.01v-.612h-3.278v-3.352h3.149v-.612h-3.149v-2.433h3.279v-.615h-4.011v7.624ZM64.273 38.021h.725v-1.049h.305c2.413 0 3.412-1.459 3.412-2.987 0-1.788-1.296-2.973-3.412-2.973h-.305v-.916h-.725v.916h-.294c-2.13 0-3.422 1.184-3.422 2.973 0 1.528.998 2.987 3.422 2.987h.294v1.05Zm.725-6.397c2.421.032 2.953 1.188 2.953 2.361 0 1.832-1.191 2.308-2.953 2.372v-4.733Zm-.725 4.733c-1.761-.064-2.952-.54-2.952-2.372 0-1.173.529-2.329 2.953-2.36v4.732ZM71.36 38.021h.704v-7.01h1.985v-.614h-4.673v.615h1.984v7.01ZM74.915 38.021h.823l1.986-3.349h.631v3.35h.735v-7.625h-1.723c-2.26 0-2.585 1.53-2.585 2.207 0 1.288.988 2.068 2.15 2.026l-2.017 3.391Zm3.44-3.964h-1.058c-.6 0-1.79-.072-1.79-1.528 0-1.413 1.26-1.517 1.86-1.517h.988v3.045ZM80.964 38.021h.732v-3.89h4.277v3.89h.732v-7.624h-.732v3.123h-4.277v-3.123h-.732v7.624ZM87.774 38.02h.735l1.027-2.475h3.145l1.03 2.476h.732L91.094 30.2l-3.32 7.82Zm2.028-3.077 1.292-3.12 1.324 3.12h-2.616ZM95.29 38.021h.824l1.986-3.349h.63v3.35h.733v-7.625h-1.72c-2.26 0-2.586 1.53-2.586 2.207 0 1.288.988 2.068 2.148 2.026L95.29 38.02Zm3.44-3.964h-1.058c-.602 0-1.793-.072-1.793-1.528 0-1.413 1.264-1.517 1.864-1.517h.988v3.045ZM103.813 38.021h.732V34.33l3.349 3.692h.956l-3.614-3.932 3.555-3.692h-.897l-3.349 3.556v-3.556h-.732v7.624ZM113.575 38.26c2.221 0 4.043-1.631 4.043-4.035 0-2.401-1.822-4.025-4.043-4.025-2.189 0-4.011 1.624-4.011 4.025 0 2.404 1.822 4.035 4.011 4.035Zm0-.644c-1.821 0-3.247-1.395-3.247-3.391 0-1.997 1.426-3.421 3.247-3.421 1.825 0 3.279 1.424 3.279 3.42 0 1.997-1.454 3.392-3.279 3.392ZM118.626 38.021h.704l.691-5.627 2.749 5.97 2.719-5.97.734 5.627h.66l-1.027-7.925-3.086 6.812-3.117-6.812-1.027 7.925ZM128.259 30.397v7.624h.732v-7.01h4.277v7.01h.733v-7.624h-5.742ZM135.072 38.02h.732l1.027-2.475h3.148l1.027 2.476h.732l-3.349-7.821-3.317 7.82Zm2.025-3.077 1.292-3.12 1.324 3.12h-2.616ZM142.778 38.021h.733v-3.89h4.276v3.89h.735v-7.624h-.735v3.123h-4.276v-3.123h-.733v7.624ZM150.383 30.397v7.968l5.114-6.376v6.032h.722v-7.925l-5.101 6.333v-6.032h-.735ZM157.868 38.021h.824l1.986-3.349h.631v3.35h.735v-7.625h-1.721c-2.262 0-2.588 1.53-2.588 2.207 0 1.288.988 2.068 2.151 2.026l-2.018 3.391Zm3.441-3.964h-1.059c-.599 0-1.79-.072-1.79-1.528 0-1.413 1.261-1.517 1.863-1.517h.986v3.045Z"/></g><defs><clipPath id="a"><path fill="#fff" d="M0 0h163v38H0z"/></clipPath></defs></svg>