<svg width="193" height="77" viewBox="0 0 193 77" fill="none" xmlns="http://www.w3.org/2000/svg">
<path d="M192.333 34.3193C192.333 36.1907 189.511 37.708 186.029 37.708C182.547 37.708 179.724 36.1907 179.724 34.3193C179.724 32.451 182.547 30.9321 186.029 30.9321C189.511 30.9321 192.333 32.451 192.333 34.3193Z" fill="white"/>
<path d="M25.5897 53.0785C12.2562 51.6202 4.01791 48.5033 1.09877 43.8147C2.17285 49.4398 4.01169 58.6648 5.48214 63.8504C5.80079 64.9686 6.3184 66.1505 7.08782 67.3883C10.495 72.8845 15.7349 75.1938 25.0208 76.2095C27.2311 76.4518 29.3311 76.6164 31.1948 76.7298L26.5145 53.1795C26.2161 53.1453 25.9083 53.1143 25.5897 53.0785ZM13.7064 49.2301L42.2356 26.7359L37.7279 0.270508C37.7279 0.270508 5.41841 28.4209 4.71427 29.0282C2.38269 31.0394 -1.76752 35.9516 2.54279 42.9046C4.17179 45.5308 7.9676 47.6647 13.7064 49.2301Z" fill="#F14F11"/>
<path d="M38.631 39.8495H48.1749L47.547 42.7149H47.6231C49.5894 40.7643 52.3236 39.2749 56.4241 39.2749C60.6846 39.2749 62.1116 40.6866 62.8002 42.7522C64.5613 40.8419 67.5084 39.2749 71.4923 39.2749C76.2254 39.2749 79.5751 41.2628 78.4606 46.3443L75.3005 60.7519H65.438L68.0307 48.9441C68.4908 46.8413 67.7353 46.1533 65.9991 46.1533C63.9473 46.1533 62.4364 47.11 61.8753 49.6694L59.4458 60.7519H49.9019L52.4915 48.9441C52.95 46.8413 52.1946 46.1533 50.4599 46.1533C48.4096 46.1533 46.8972 47.11 46.3361 49.6694L43.905 60.7519H34.044L38.631 39.8495Z" fill="white"/>
<path d="M98.0132 39.0078C109.135 39.0078 113.198 42.6016 111.513 50.2813C109.819 57.9999 104.181 61.5937 93.0594 61.5937C81.9378 61.5937 77.8746 57.9999 79.5689 50.2813C81.2523 42.6016 86.89 39.0078 98.0132 39.0078ZM94.4164 55.4002C98.4018 55.4002 100.443 53.6437 101.18 50.2813C101.902 46.9935 100.639 45.1982 96.6562 45.1982C92.7112 45.1982 90.6206 46.9935 89.9009 50.2813C89.161 53.6437 90.4729 55.4002 94.4164 55.4002Z" fill="white"/>
<path d="M116.167 39.8495H125.714L125.142 42.4478H125.221C126.541 41.109 130.097 39.2749 134.829 39.2749C140.274 39.2749 143.857 41.6448 142.582 47.4517L139.666 60.7519H129.804L132.176 49.9381C132.755 47.2995 131.548 46.1533 129.221 46.1533C126.619 46.1533 124.321 47.6442 123.555 51.123L121.443 60.7519H111.583L116.167 39.8495Z" fill="white"/>
<path d="M163.734 58.536H163.653C161.445 60.5255 158.49 61.594 154.114 61.594C147.723 61.594 142.59 58.1912 144.294 50.4323C145.997 42.6764 152.617 39.2752 159.007 39.2752C163.03 39.2752 165.659 40.2319 166.921 42.2198H166.998L169.128 32.5117H178.989L172.792 60.7522H163.248L163.734 58.536ZM160.793 45.6955C157.243 45.6955 154.977 47.761 154.391 50.4323C153.788 53.1842 154.929 55.1721 158.754 55.1721C162.541 55.1721 164.543 53.4141 165.197 50.4323C165.842 47.4923 164.619 45.6955 160.793 45.6955Z" fill="white"/>
<path d="M180.138 39.8496H189.999L185.412 60.752H175.551L180.138 39.8496Z" fill="white"/>
</svg>
