<svg width="188" height="77" viewBox="0 0 188 77" fill="none" xmlns="http://www.w3.org/2000/svg">
<g clip-path="url(#clip0_765_3823)">
<path d="M36.3422 0C35.4511 1.33454 32.1687 6.47064 30.5067 12.1648C28.6944 18.507 28.4558 24.1245 29.0802 29.6675C29.7027 35.2115 32.0307 40.8943 32.0307 40.8943C33.2766 43.8863 35.1575 47.0874 36.3744 48.659C38.1567 46.3451 42.2618 39.4594 43.5388 30.444C44.2484 25.4363 44.2681 21.0518 42.6322 13.9124C40.9972 6.76777 36.9076 0.949404 36.3422 0ZM36.3101 3.8182C36.696 4.40936 39.2823 9.01645 40.6216 13.8472C41.9547 18.6779 42.2348 23.316 42.1777 26.044C42.1165 28.7678 41.7825 31.6366 41.3675 33.3563C41.5179 30.3933 41.1434 26.2003 40.4598 22.9381C39.7771 19.6779 37.8537 14.2323 36.3101 11.7113C34.8826 14.1132 33.1449 18.8165 32.2247 22.906C31.3014 26.9954 31.2526 31.97 31.2526 33.4526C31.0088 32.2019 30.3967 27.716 30.5711 23.2301C30.7163 19.5309 31.5887 15.7541 32.0629 14.0087C33.8773 8.16851 35.9242 4.4104 36.3101 3.8182ZM26.6807 23.7146C11.9466 23.7146 3.55017e-10 35.637 3.55017e-10 50.3413C-7.51999e-05 65.0447 11.9466 76.9685 26.6807 76.9685C34.3638 76.9685 41.297 73.708 46.1656 68.5243V50.3413H39.1298H26.6807V58.6558C26.6921 58.6465 26.7025 58.6341 26.7139 58.6238C29.6415 55.699 34.3826 55.699 37.3143 58.6238C40.2409 61.5454 40.2409 66.2798 37.3143 69.2034C37.3018 69.2159 37.2946 69.2211 37.2821 69.2355C37.2655 69.2511 37.2655 69.2873 37.2499 69.3008C34.3317 72.1965 30.4995 73.6356 26.6807 73.6356C22.8474 73.6356 19.038 72.1872 16.1124 69.2677C10.9564 64.1242 10.3365 56.1556 14.2646 50.3413C14.7963 49.5566 15.4174 48.8019 16.1124 48.1092C19.038 45.1897 22.8474 43.7414 26.6807 43.7414V23.7146ZM36.3744 29.3114C36.8226 30.0837 38.303 33.3024 38.4825 37.6911C38.6017 41.9896 37.1732 45.3689 36.3422 46.9114C35.5403 45.3989 34.2881 42.4959 34.1698 38.0472C34.1388 33.7497 35.8692 30.0837 36.3744 29.3114ZM49.5694 50.3413V77H54.8862V60.274H55.0812L57.8366 77H62.116L64.8392 60.274H65.0333V77H70.3832V50.3413H63.445L59.9758 69.074L56.5066 50.3413H49.5694ZM77.0935 50.3413C73.3586 50.3413 73.1386 53.2329 73.1386 55.0975V72.2441C73.1386 74.1087 73.3586 77 77.0935 77H81.5025C85.2399 77 85.4904 74.1087 85.4904 72.2441V55.0975C85.4904 53.2329 85.2399 50.3413 81.5025 50.3413H77.0935ZM92.2012 50.3413C88.4653 50.3413 88.2134 53.2319 88.2134 55.0975V60.1767C88.2134 61.5847 88.5322 62.6821 89.867 63.6708L93.8218 66.6794C94.6234 67.2871 95.2483 67.7851 95.2483 69.0419V73.1831C95.2483 73.6376 94.8986 74.0559 94.4061 74.0559C94.1008 74.0559 93.5623 73.8695 93.5623 73.1831V68.2003H88.2134V72.2441C88.2134 74.1097 88.4653 77 92.2012 77H96.6102C100.349 77 100.598 74.1097 100.597 72.2441V67.2623C100.597 65.3977 99.8084 64.499 98.5879 63.5093L94.7625 60.3703C93.9263 59.686 93.5623 59.5307 93.5623 58.0088V54.1585C93.5623 53.4731 94.1008 53.2858 94.4061 53.2858C94.8986 53.2858 95.2483 53.703 95.2483 54.1585V58.6238H100.597V55.0975C100.597 53.2319 100.349 50.3413 96.6102 50.3413H92.2012ZM103.322 50.3413V77H114.376V74.0559H108.67V64.4794H114.149V61.5361H108.67V53.2858H114.149V50.3413H103.322ZM116.451 50.3413V77H121.768V64.1564H121.962L124.263 77H129.612V50.3413H124.263V63.1853H124.069L121.768 50.3413H116.451ZM132.336 50.3413V77H143.391V74.0559H137.685V64.4794H143.164V61.5361H137.685V53.2858H143.164V50.3413H132.336ZM145.465 50.3413V77H150.816V67.1328H151.172L153.02 77H158.499L155.873 66.6152C157.778 65.8532 157.818 64.1026 157.818 63.3799V55.0975C157.818 53.2329 157.596 50.3413 153.862 50.3413H145.465ZM164.529 50.3413C160.795 50.3413 160.574 53.2329 160.574 55.0975V72.2441C160.574 74.1087 160.793 77 164.529 77H168.938C172.676 77 172.925 74.1087 172.925 72.2441V63.9296H166.766V66.874H167.576V73.1831C167.576 73.6376 167.227 74.0559 166.733 74.0559C166.427 74.0559 165.89 73.8685 165.89 73.1831V54.1585C165.89 53.4742 166.427 53.2858 166.733 53.2858C167.225 53.2858 167.576 53.703 167.576 54.1585V58.8826H172.925V55.0975C172.925 53.2329 172.675 50.3413 168.938 50.3413H164.529ZM179.636 50.3413C175.9 50.3413 175.648 53.2329 175.648 55.0975V72.2441C175.648 74.1087 175.9 77 179.636 77H184.045C187.781 77 188 74.1087 188 72.2441V55.0975C188 53.2329 187.781 50.3413 184.045 50.3413H179.636ZM79.2976 53.2858C79.7947 53.2858 80.1414 53.702 80.1414 54.1585V73.1831C80.1414 73.6376 79.7947 74.0559 79.2976 74.0559C78.9938 74.0559 78.4554 73.8685 78.4554 73.1831V54.1585C78.4554 53.4742 78.9938 53.2858 79.2976 53.2858ZM150.816 53.2858H151.496C152.066 53.2858 152.468 53.7734 152.468 54.612V62.8623C152.468 63.6978 152.066 64.1885 151.496 64.1885H150.816V53.2858ZM181.841 53.2858C182.336 53.2858 182.683 53.702 182.684 54.1585V73.1831C182.684 73.6376 182.336 74.0559 181.841 74.0559C181.535 74.0559 180.997 73.8685 180.997 73.1831V54.1585C180.997 53.4742 181.535 53.2858 181.841 53.2858Z" fill="#1477C6"/>
</g>
<defs>
<clipPath id="clip0_765_3823">
<rect width="188" height="77" fill="white"/>
</clipPath>
</defs>
</svg>
