<svg width="218" height="50" viewBox="0 0 218 50" fill="none" xmlns="http://www.w3.org/2000/svg">
<path d="M0.654785 25.2129C0.657708 31.7172 3.22034 37.9542 7.77956 42.5534C12.3388 47.1526 18.5216 49.7377 24.9693 49.7407V0.677734C18.5203 0.680684 12.3364 3.26682 7.77696 7.86763C3.21753 12.4684 0.655759 18.7074 0.654785 25.2129ZM49.2874 0.681443V49.7407C62.7093 49.7407 73.6019 38.7488 73.6019 25.2092C73.6019 11.6696 62.7093 0.681443 49.2874 0.681443Z" fill="#0080C8"/>
<path d="M146.41 25.3794L141.226 17.0131H136.646V33.3489H141.583V25.1383L146.707 33.3489H151.288V17.0131H146.406L146.41 25.3794ZM113.504 16.7461H110.953C107.581 16.7461 104.824 19.1714 104.824 22.9318V27.4895C104.824 31.2647 107.581 33.6715 110.953 33.6715H113.504C116.871 33.6715 119.632 31.2425 119.632 27.4895V22.9281C119.632 18.9712 116.875 16.7461 113.504 16.7461ZM114.401 27.8529C114.399 28.3736 114.193 28.8724 113.828 29.2406C113.463 29.6088 112.969 29.8165 112.452 29.8184H112.004C111.488 29.8165 110.993 29.6088 110.628 29.2406C110.263 28.8724 110.057 28.3736 110.056 27.8529V22.561C110.056 21.4781 110.934 20.5918 112.004 20.5918H112.449C113.522 20.5918 114.397 21.4744 114.397 22.5572L114.401 27.8529ZM153.564 33.3489H158.776V17.0131H153.564V33.3489ZM211.832 28.9358V17.0168H206.622V33.3489H218V28.9395L211.832 28.9358ZM169.004 16.7461H166.669C163.298 16.7461 160.541 19.1714 160.541 22.9318V27.4895C160.541 31.2647 163.298 33.6715 166.669 33.6715H169.004C172.375 33.6715 175.132 31.2425 175.132 27.4895V27.2818H169.901V27.8529C169.899 28.3736 169.693 28.8724 169.328 29.2406C168.963 29.6088 168.468 29.8165 167.952 29.8184H167.724C167.208 29.8165 166.714 29.6088 166.349 29.2406C165.984 28.8724 165.778 28.3736 165.776 27.8529V22.561C165.776 21.4781 166.651 20.5918 167.724 20.5918H167.949C169.022 20.5918 169.901 21.4744 169.901 22.5572V23.3546H175.132V22.9318C175.132 18.9712 172.375 16.7461 169.004 16.7461ZM135.16 23.0134V22.2235C135.16 18.8896 132.403 17.0131 129.032 17.0131H121.4V33.3452H126.536V28.513H128.069L130.231 33.3489H135.627L132.613 27.3634C134.157 26.5105 135.164 25.0271 135.164 23.0097M130.098 22.8243C130.098 23.4176 129.797 24.7452 128.29 24.7452H126.54V20.6771H128.503C129.032 20.6771 130.098 21.289 130.098 22.5647V22.8243ZM98.1226 25.2236L92.7773 17.0131H88.1968V33.3489H93.1339V25.0642L98.4828 33.3452H103.06V17.0131H98.1226V25.2236ZM198.042 27.152H203.913V23.2656H198.042V21.2741H204.442V17.0168H192.829V33.3489H204.917V29.0841H198.038L198.042 27.152ZM191.587 17.0131H185.951L183.201 23.1914H181.915V17.0131H176.705V33.3452H181.915V27.5488H183.194L186.006 33.3526H191.984L187.569 25.1124L191.587 17.0131Z" fill="#F3F3F3"/>
</svg>
