<svg width="218" height="52" viewBox="0 0 218 52" fill="none" xmlns="http://www.w3.org/2000/svg">
<g clip-path="url(#clip0_882_3582)">
<path d="M49.2874 18.2617L24.9692 1.68115V34.1561L49.2874 50.7404V18.2617Z" fill="#00589C"/>
<path d="M0.654785 26.2129C0.657708 32.7172 3.22034 38.9542 7.77956 43.5534C12.3388 48.1526 18.5216 50.7377 24.9693 50.7407V1.67773C18.5203 1.68068 12.3364 4.26682 7.77696 8.86763C3.21753 13.4684 0.655759 19.7074 0.654785 26.2129ZM49.2874 1.68144V50.7407C62.7093 50.7407 73.6019 39.7488 73.6019 26.2092C73.6019 12.6696 62.7093 1.68144 49.2874 1.68144Z" fill="#0080C8"/>
<path d="M146.41 26.3794L141.226 18.0131H136.646V34.3489H141.583V26.1383L146.707 34.3489H151.288V18.0131H146.406L146.41 26.3794ZM113.504 17.7461H110.953C107.581 17.7461 104.824 20.1714 104.824 23.9318V28.4895C104.824 32.2647 107.581 34.6715 110.953 34.6715H113.504C116.871 34.6715 119.632 32.2425 119.632 28.4895V23.9281C119.632 19.9712 116.875 17.7461 113.504 17.7461ZM114.401 28.8529C114.399 29.3736 114.193 29.8724 113.828 30.2406C113.463 30.6088 112.969 30.8165 112.452 30.8184H112.004C111.488 30.8165 110.993 30.6088 110.628 30.2406C110.263 29.8724 110.057 29.3736 110.056 28.8529V23.561C110.056 22.4781 110.934 21.5918 112.004 21.5918H112.449C113.522 21.5918 114.397 22.4744 114.397 23.5572L114.401 28.8529ZM153.564 34.3489H158.776V18.0131H153.564V34.3489ZM211.832 29.9358V18.0168H206.622V34.3489H218V29.9395L211.832 29.9358ZM169.004 17.7461H166.669C163.298 17.7461 160.541 20.1714 160.541 23.9318V28.4895C160.541 32.2647 163.298 34.6715 166.669 34.6715H169.004C172.375 34.6715 175.132 32.2425 175.132 28.4895V28.2818H169.901V28.8529C169.899 29.3736 169.693 29.8724 169.328 30.2406C168.963 30.6088 168.468 30.8165 167.952 30.8184H167.724C167.208 30.8165 166.714 30.6088 166.349 30.2406C165.984 29.8724 165.778 29.3736 165.776 28.8529V23.561C165.776 22.4781 166.651 21.5918 167.724 21.5918H167.949C169.022 21.5918 169.901 22.4744 169.901 23.5572V24.3546H175.132V23.9318C175.132 19.9712 172.375 17.7461 169.004 17.7461ZM135.16 24.0134V23.2235C135.16 19.8896 132.403 18.0131 129.032 18.0131H121.4V34.3452H126.536V29.513H128.069L130.231 34.3489H135.627L132.613 28.3634C134.157 27.5105 135.164 26.0271 135.164 24.0097M130.098 23.8243C130.098 24.4176 129.797 25.7452 128.29 25.7452H126.54V21.6771H128.503C129.032 21.6771 130.098 22.289 130.098 23.5647V23.8243ZM98.1226 26.2236L92.7773 18.0131H88.1968V34.3489H93.1339V26.0642L98.4828 34.3452H103.06V18.0131H98.1226V26.2236ZM198.042 28.152H203.913V24.2656H198.042V22.2741H204.442V18.0168H192.829V34.3489H204.917V30.0841H198.038L198.042 28.152ZM191.587 18.0131H185.951L183.201 24.1914H181.915V18.0131H176.705V34.3452H181.915V28.5488H183.194L186.006 34.3526H191.984L187.569 26.1124L191.587 18.0131Z" fill="#F3F3F3"/>
</g>
<defs>
<clipPath id="clip0_882_3582">
<rect width="217.351" height="50.6047" fill="white" transform="translate(0.648926 0.906738)"/>
</clipPath>
</defs>
</svg>
