<svg width="262" height="61" viewBox="0 0 262 61" fill="none" xmlns="http://www.w3.org/2000/svg">
<g clip-path="url(#clip0_765_3857)">
<path d="M58.6302 20.9201L29.3165 0.933594V40.0797L58.6302 60.0707V20.9201Z" fill="#00589C"/>
<path d="M0.00732422 30.5044C0.0108472 38.3448 3.0999 45.8631 8.59569 51.407C14.0915 56.951 21.5443 60.0672 29.3165 60.0707V0.929199C21.5428 0.932754 14.0886 4.05014 8.59255 9.59606C3.09652 15.142 0.00849823 22.6625 0.00732422 30.5044ZM58.6302 0.933669V60.0707C74.8092 60.0707 87.9394 46.8209 87.9394 30.5C87.9394 14.179 74.8092 0.933669 58.6302 0.933669Z" fill="#0080C8"/>
<path d="M175.703 30.7056L169.455 20.6207H163.933V40.3122H169.885V30.415L176.062 40.3122H181.584V20.6207H175.699L175.703 30.7056ZM136.038 20.2988H132.962C128.899 20.2988 125.575 23.2224 125.575 27.7552V33.2492C125.575 37.7999 128.899 40.7011 132.962 40.7011H136.038C140.097 40.7011 143.425 37.7731 143.425 33.2492V27.7508C143.425 22.981 140.101 20.2988 136.038 20.2988ZM137.119 33.6873C137.117 34.3149 136.868 34.9161 136.428 35.36C135.989 35.8038 135.392 36.0541 134.77 36.0565H134.23C133.607 36.0541 133.011 35.8038 132.572 35.36C132.132 34.9161 131.883 34.3149 131.881 33.6873V27.3082C131.881 26.0029 132.94 24.9345 134.23 24.9345H134.766C136.06 24.9345 137.115 25.9984 137.115 27.3037L137.119 33.6873ZM184.327 40.3122H190.61V20.6207H184.327V40.3122ZM254.564 34.9926V20.6252H248.285V40.3122H262V34.997L254.564 34.9926ZM202.938 20.2988H200.124C196.061 20.2988 192.737 23.2224 192.737 27.7552V33.2492C192.737 37.7999 196.061 40.7011 200.124 40.7011H202.938C207.002 40.7011 210.326 37.7731 210.326 33.2492V32.9988H204.02V33.6873C204.017 34.3149 203.769 34.9161 203.329 35.36C202.889 35.8038 202.293 36.0541 201.671 36.0565H201.396C200.774 36.0541 200.178 35.8038 199.738 35.36C199.298 34.9161 199.05 34.3149 199.048 33.6873V27.3082C199.048 26.0029 200.102 24.9345 201.396 24.9345H201.667C202.961 24.9345 204.02 25.9984 204.02 27.3037V28.2648H210.326V27.7552C210.326 22.981 207.002 20.2988 202.938 20.2988ZM162.143 27.8536V26.9014C162.143 22.8826 158.819 20.6207 154.756 20.6207H145.556V40.3077H151.747V34.483H153.595L156.201 40.3122H162.706L159.072 33.0972C160.933 32.069 162.147 30.2809 162.147 27.8491M156.041 27.6256C156.041 28.3408 155.678 29.9412 153.861 29.9412H151.751V25.0373H154.118C154.756 25.0373 156.041 25.7749 156.041 27.3127V27.6256ZM117.497 30.5178L111.053 20.6207H105.532V40.3122H111.483V30.3256L117.931 40.3077H123.448V20.6207H117.497V30.5178ZM237.942 32.8424H245.019V28.1575H237.942V25.757H245.657V20.6252H231.658V40.3122H246.229V35.1714H237.938L237.942 32.8424ZM230.16 20.6207H223.367L220.052 28.0681H218.501V20.6207H212.222V40.3077H218.501V33.3207H220.044L223.434 40.3167H230.639L225.317 30.3837L230.16 20.6207Z" fill="#626261"/>
</g>
<defs>
<clipPath id="clip0_765_3857">
<rect width="262" height="61" fill="white"/>
</clipPath>
</defs>
</svg>
