<svg width="220" height="77" viewBox="0 0 220 77" fill="none" xmlns="http://www.w3.org/2000/svg">
<g clip-path="url(#clip0_765_3744)">
<path d="M44.9527 43.9865C43.8771 45.1696 42.4738 46.0084 40.92 46.3969C39.3662 46.7855 37.7317 46.7063 36.223 46.1694C34.7144 45.6325 33.3993 44.662 32.4439 43.3806C31.4886 42.0991 30.9359 40.5641 30.8556 38.9697C30.7754 37.3753 31.1712 35.7929 31.9931 34.4226C32.815 33.0523 34.026 31.9556 35.4732 31.2709C36.9204 30.5863 38.5387 30.3445 40.1237 30.5762C41.7087 30.8078 43.1892 31.5025 44.3782 32.5724C45.1701 33.283 45.8134 34.1424 46.2711 35.1013C46.7288 36.0603 46.9919 37.0999 47.0452 38.1605C47.0986 39.2211 46.9412 40.2817 46.5821 41.2815C46.223 42.2813 45.6693 43.2006 44.9527 43.9865Z" fill="url(#paint0_radial_765_3744)"/>
<path d="M41.063 10.9011C41.7332 11.569 42.3675 12.2488 42.9301 12.9287C44.8873 15.2556 46.4995 17.8503 47.7173 20.6334C49.6382 20.9904 51.5939 21.1265 53.5459 21.0389H53.893H54.2041C59.5366 20.5534 64.5136 18.1645 68.2189 14.3122L68.7096 13.8112C67.9676 12.9287 67.2136 12.0699 66.3878 11.247C59.7962 4.70136 51.0612 0.737934 41.7792 0.0809724C32.4971 -0.575989 23.2877 2.11739 15.834 7.6689C27.6825 1.92014 35.9047 5.87987 41.063 10.9011Z" fill="url(#paint1_linear_765_3744)"/>
<path d="M13.6317 50.093C13.8711 49.1746 14.1464 48.292 14.4456 47.4691C15.495 44.6193 16.9457 41.9327 18.7541 39.49C18.1068 37.6555 17.2473 35.9023 16.1929 34.266L16.0014 33.9678L15.8219 33.7174C12.7511 29.4003 8.2287 26.3238 3.07575 25.0465L2.39356 24.8438C1.99861 25.9172 1.63957 27.0025 1.32839 28.1236C-1.0696 37.0821 -0.153422 46.6014 3.90955 54.9423C7.97252 63.2833 14.9111 69.8891 23.4576 73.5532C12.5067 66.1585 11.8245 57.0464 13.6317 50.093Z" fill="url(#paint2_linear_765_3744)"/>
<path d="M61.5166 54.2315C60.595 54.482 59.6854 54.6847 58.8118 54.8398C55.8117 55.3574 52.7529 55.4458 49.7279 55.1022C48.462 56.5621 47.3696 58.163 46.4725 59.8729C46.4725 59.9803 46.3648 60.0757 46.3169 60.183C46.2681 60.2761 46.2242 60.3716 46.1853 60.4693C43.9459 65.2799 43.521 70.7336 44.9885 75.8311C44.9885 76.0577 45.1201 76.2843 45.1919 76.5109C46.3169 76.3082 47.4539 76.0935 48.5789 75.7953C57.5471 73.377 65.3458 67.8303 70.556 60.1646C75.7662 52.4989 78.0414 43.2239 76.9676 34.0273C76.0101 47.1827 68.4342 52.3113 61.5166 54.2315Z" fill="url(#paint3_linear_765_3744)"/>
<path d="M15.774 7.66921C10.1 11.6198 5.66429 17.0905 2.97998 23.4485C6.97111 24.2883 10.6685 26.1648 13.6972 28.8877C16.726 31.6107 18.9784 35.0833 20.2262 38.9534C21.2914 38.2736 24.5707 35.6855 26.7728 28.577C29.4417 19.9778 34.4923 13.6327 41.0629 10.8656C41.0629 10.9014 32.745 -0.894296 15.774 7.66921Z" fill="url(#paint4_linear_765_3744)"/>
<path d="M42.4154 69.5813C42.4108 63.8189 44.5761 58.2646 48.4833 54.0167L48.5432 53.9332C47.7413 53.0864 44.9527 51.0111 37.7718 52.6332C29.023 54.625 19.3048 54.3984 13.6318 50.0928C13.6318 50.0928 7.52805 63.2124 23.4578 73.5291C29.7181 76.4517 36.681 77.5475 43.5405 76.6897C42.7766 74.3978 42.3965 71.9963 42.4154 69.5813Z" fill="url(#paint5_linear_765_3744)"/>
<path d="M69.6551 15.0996C67.5122 17.5267 64.8759 19.4721 61.9211 20.8066C58.9664 22.1411 55.7606 22.8343 52.5166 22.8402C50.8072 22.8341 49.1028 22.6543 47.4301 22.3035H47.3463C47.0112 23.4961 46.7479 26.8953 51.595 32.0954C57.7347 38.7029 62.3664 47.1949 61.5167 54.2437C61.5167 54.2437 75.8785 52.9675 76.9677 34.0395C76.3746 27.1645 73.8392 20.5977 69.6551 15.0996Z" fill="url(#paint6_linear_765_3744)"/>
<path d="M94.8363 48.3514H90.803V29.6143H97.2778C102.065 29.6143 104.985 31.5703 104.985 35.8759C104.985 40.1815 101.921 42.4953 96.9427 42.4953H94.8363V48.3514ZM94.7525 38.953H96.9427C99.3363 38.953 100.808 38.0227 100.808 36.0429C100.808 34.063 99.456 33.1565 96.9427 33.1565H94.7525V38.953Z" fill="white"/>
<path d="M107.917 38.989C107.917 32.6916 111.759 29.2925 116.942 29.2925C122.746 29.2925 126.109 32.966 126.109 38.989C126.109 45.6562 122.208 48.6737 117.049 48.6737C111.604 48.6737 107.917 45.3222 107.917 38.989ZM121.837 38.989C121.837 34.7311 119.874 32.8348 116.942 32.8348C114.285 32.8348 112.154 34.8146 112.154 38.989C112.154 43.1635 114.332 45.1433 117.157 45.1433C119.981 45.1433 121.837 43.1873 121.837 38.989Z" fill="white"/>
<path d="M144.038 47.6C142.467 48.3999 140.712 48.7703 138.951 48.6734C133.206 48.6734 129.376 45.3816 129.376 39.2273C129.376 32.7749 133.158 29.2922 139.31 29.2922C140.95 29.2544 142.58 29.5549 144.097 30.1748L143.212 33.5501C142.152 33.2057 141.047 33.0169 139.932 32.9896C136.222 32.9896 133.697 34.8382 133.697 38.953C133.697 42.9127 136.091 44.9165 139.909 44.9165C141.052 44.8797 142.179 44.6372 143.236 44.2009L144.038 47.6Z" fill="white"/>
<path d="M158.783 43.354H150.8L148.981 48.3514H146.587L153.768 29.6143H156.161L163.199 48.3514H160.674L158.783 43.354ZM151.53 41.1595H157.981L154.845 32.3455H154.737L151.53 41.1595Z" fill="white"/>
<path d="M171.505 48.3514H169.111V31.8684H163.546V29.6143H177.082V31.8684H171.505V48.3514Z" fill="white"/>
<path d="M179.619 38.989C179.619 33.0255 183.09 29.3521 187.997 29.3521C193.586 29.3521 196.59 33.3118 196.59 38.989C196.59 45.3579 193 48.6259 188.081 48.6259C182.922 48.6259 179.619 44.9286 179.619 38.989ZM194.077 38.989C194.077 33.8485 191.767 31.5943 188.093 31.5943C184.789 31.5943 182.24 33.9797 182.24 38.989C182.24 43.9983 184.706 46.3717 188.416 46.3717C191.899 46.3717 194.077 43.8313 194.077 38.989Z" fill="white"/>
<path d="M220 48.3514H217.606L216.41 33.7171L211.622 48.3514H209.097L204.381 33.7648L203.185 48.3514H200.791L202.395 29.6143H205.351L210.425 45.7275L215.428 29.6143H218.384L220 48.3514Z" fill="white"/>
</g>
<defs>
<radialGradient id="paint0_radial_765_3744" cx="0" cy="0" r="1" gradientUnits="userSpaceOnUse" gradientTransform="translate(36.4179 32.8677) scale(11.379 11.3397)">
<stop stop-color="#4495D1"/>
<stop offset="1" stop-color="#15256D"/>
</radialGradient>
<linearGradient id="paint1_linear_765_3744" x1="27.8502" y1="2.59659" x2="61.8716" y2="16.3406" gradientUnits="userSpaceOnUse">
<stop stop-color="#4495D1"/>
<stop offset="1" stop-color="#15256D"/>
</linearGradient>
<linearGradient id="paint2_linear_765_3744" x1="13.05" y1="65.6914" x2="7.94213" y2="29.4683" gradientUnits="userSpaceOnUse">
<stop stop-color="#4495D1"/>
<stop offset="1" stop-color="#15256D"/>
</linearGradient>
<linearGradient id="paint3_linear_765_3744" x1="75.3697" y1="46.9493" x2="46.5456" y2="69.605" gradientUnits="userSpaceOnUse">
<stop stop-color="#4495D1"/>
<stop offset="1" stop-color="#15256D"/>
</linearGradient>
<linearGradient id="paint4_linear_765_3744" x1="14.2181" y1="28.5651" x2="29.4513" y2="5.10442" gradientUnits="userSpaceOnUse">
<stop stop-color="#4495D1"/>
<stop offset="1" stop-color="#15256D"/>
</linearGradient>
<linearGradient id="paint5_linear_765_3744" x1="43.1814" y1="61.9362" x2="15.7282" y2="64.7462" gradientUnits="userSpaceOnUse">
<stop stop-color="#4495D1"/>
<stop offset="1" stop-color="#15256D"/>
</linearGradient>
<linearGradient id="paint6_linear_765_3744" x1="60.8584" y1="22.3631" x2="66.4105" y2="50.5298" gradientUnits="userSpaceOnUse">
<stop stop-color="#4495D1"/>
<stop offset="1" stop-color="#15256D"/>
</linearGradient>
<clipPath id="clip0_765_3744">
<rect width="220" height="77" fill="white"/>
</clipPath>
</defs>
</svg>
