<svg xmlns="http://www.w3.org/2000/svg" width="241" height="76" fill="none"><path fill="#FFD200" d="M22.26 43.24h-6.607v32.628h6.607V43.24ZM30.064 36.503h-6.607v39.365h6.607V36.503ZM37.868 43.24h-6.607v32.628h6.607V43.24Z"/><path fill="#fff" fill-rule="evenodd" d="M6.607 44.517 0 38.704V21.973h6.607v22.545ZM14.411 51.826l-6.563-6.429V14.575h6.563v37.251Z" clip-rule="evenodd"/><path fill="#fff" d="M22.26 7.31h-6.607v34.917h6.607V7.31ZM30.064 0h-6.607v35.05h6.607V0Z"/><path fill="#fff" fill-rule="evenodd" d="m46.914 44.517 6.563-5.813V21.973h-6.563v22.545ZM39.066 51.826l6.607-6.429V14.575h-6.607v37.251Z" clip-rule="evenodd"/><path fill="#fff" d="M37.868 7.31h-6.607v34.917h6.607V7.31Z"/><path fill="#fff" fill-rule="evenodd" d="M100.391 74.723c-.843.837-2.395 1.233-4.656 1.233H88.33c-2.217 0-3.814-.396-4.656-1.189-.887-.792-1.33-2.025-1.33-3.61v-7.134c0-1.629.443-2.818 1.33-3.61.887-.793 2.439-1.19 4.656-1.19h7.405c2.261 0 3.813.397 4.656 1.233.842.837 1.241 2.026 1.241 3.611v7.134c0 1.54-.399 2.73-1.241 3.522Zm-3.814-9.027c0-.924-.177-1.585-.576-2.025-.4-.44-1.242-.617-2.572-.617h-2.838c-1.241 0-2.084.22-2.483.705-.4.44-.62 1.1-.62 1.981v3.831c0 .837.22 1.497.62 1.982.4.484 1.242.704 2.483.704h2.838c1.33 0 2.173-.22 2.572-.616.355-.44.576-1.101.62-1.982v-3.963h-.044ZM122.606 74.723c-.842.837-2.35 1.233-4.611 1.233h-7.45c-2.217 0-3.813-.396-4.656-1.189-.887-.792-1.286-2.025-1.286-3.61v-7.134c0-1.629.444-2.818 1.286-3.61.887-.793 2.439-1.19 4.656-1.19h7.405c2.262 0 3.814.397 4.612 1.233.842.837 1.241 2.026 1.241 3.611v1.63h-5.055c0-.925-.177-1.586-.576-2.026-.399-.44-1.242-.617-2.572-.617h-2.838c-1.241 0-2.04.22-2.483.705-.399.44-.621 1.1-.621 1.981v3.831c0 .837.222 1.497.621 1.982.399.484 1.242.704 2.483.704h2.838c1.33 0 2.173-.22 2.572-.616.399-.44.576-1.101.576-2.026h5.1v1.63c0 1.497-.399 2.685-1.242 3.478ZM131.874 76h-5.055V59.223h5.055v6.385h9.09v-6.384h5.099V76h-5.099v-6.56h-9.09V76ZM155.553 69.44h-1.464c0 .88.222 1.584.666 2.025.443.484 1.241.704 2.483.704h11.041v3.787h-13.303c-2.261 0-3.813-.396-4.656-1.189-.886-.792-1.286-2.025-1.286-3.61v-7.134c0-1.629.444-2.818 1.286-3.61.887-.793 2.439-1.19 4.656-1.19h13.303v3.831h-11.041c-1.242 0-2.04.22-2.483.705-.399.44-.621 1.1-.666 1.893H168.279v3.831h-12.726v-.044ZM207.211 63.01h-6.917v-3.786h19.2v3.786h-7.228V76h-5.055V63.01ZM195.815 62.218h-7.848v-3.082h-5.011v3.082h-8.026s-4.567.132-4.567 5.284 4.7 5.152 4.7 5.152h7.893v3.302h5.011v-3.302h7.715s4.7-.044 4.7-5.152c0-5.152-4.567-5.284-4.567-5.284Zm-2.705 7.09h-5.143V65.74h5.099s1.774-.22 1.774 1.849c0 1.805-1.73 1.717-1.73 1.717Zm-17.027-1.674c0-2.114 1.774-1.85 1.774-1.85h5.099v3.567h-5.144c0-.044-1.729.044-1.729-1.717ZM78.176 60.456c-.843-.836-2.395-1.232-4.656-1.232H60.173V76h5.055v-5.768h8.292c2.261 0 3.813-.397 4.656-1.233.842-.837 1.241-2.026 1.241-3.567v-1.32c0-1.63-.399-2.819-1.241-3.655Zm-5.454 5.945h-7.45v-3.346h7.45c.93 0 1.684.748 1.684 1.673 0 .924-.753 1.673-1.684 1.673ZM241 71.156v-1.32c0-1.542-.399-2.775-1.242-3.611-.842-.837-2.394-1.233-4.656-1.233h-8.292v-5.768h-5.055V76h13.347c2.262 0 3.814-.396 4.656-1.233.798-.837 1.242-2.07 1.242-3.61Zm-5.055-.66c0 .925-.754 1.673-1.685 1.673h-7.45v-3.346h7.45c.931 0 1.685.748 1.685 1.673Z" clip-rule="evenodd"/></svg>