<svg width="120" height="65" viewBox="0 0 120 65" fill="none" xmlns="http://www.w3.org/2000/svg">
<g clip-path="url(#clip0_882_3577)">
<path fill-rule="evenodd" clip-rule="evenodd" d="M46.75 6.00439H0.0317383V35.0029H11.7113C9.81126 32.496 8.7859 29.4423 8.79062 26.3045C8.79062 18.2964 15.3271 11.804 23.3909 11.804C31.454 11.804 37.9905 18.2964 37.9905 26.3045C37.9905 29.5688 36.9038 32.5803 35.0711 35.0029H46.7494L46.75 6.00439Z" fill="white"/>
<path fill-rule="evenodd" clip-rule="evenodd" d="M17.7292 23.4033H17.5513V58.2039H52.59V58.026C35.8547 53.1289 22.6618 40.0262 17.7292 23.4033Z" fill="white"/>
<path fill-rule="evenodd" clip-rule="evenodd" d="M91.8376 32.8212C91.7776 32.9663 91.7043 33.1766 91.6208 33.4533C91.5359 33.7307 91.4939 33.9594 91.4939 34.1399C91.4939 34.3083 91.534 34.4388 91.6112 34.5281C91.6909 34.62 91.8153 34.6941 91.9849 34.7549C92.0818 34.7777 92.1928 34.7986 92.321 34.8169C92.4491 34.8359 92.5601 34.8518 92.657 34.8619V35.2153H89.5992V34.8619C89.7925 34.8385 89.9831 34.7777 90.1706 34.6814C90.3587 34.5858 90.5194 34.4711 90.6527 34.3394C90.7611 34.2184 90.8523 34.0886 90.9257 33.9499C90.9977 33.8131 91.0462 33.7067 91.0717 33.6345L95.035 23.3932H95.3615L99.4543 34.8619H100.671V35.2153H95.7212V34.8619H97.3218L95.9992 31.2125H92.4893L91.8376 32.8212ZM94.3259 26.3706L92.5811 30.8572H95.8717L94.3259 26.3706ZM112.107 23.7485H110.726V34.8587H112.107V35.2153H107.34V34.8587H108.721V23.7485H106.699C106.541 23.7485 106.322 23.7669 106.044 23.8036C105.764 23.8385 105.521 23.9531 105.315 24.1463C105.152 24.291 105.035 24.4789 104.976 24.6878C104.925 24.8778 104.886 25.0707 104.859 25.2654C104.835 25.4579 104.816 25.6707 104.803 25.9044C104.791 26.1407 104.783 26.4168 104.777 26.7354C104.77 27.054 104.764 27.4308 104.759 27.8634C104.752 28.2966 104.743 28.802 104.731 29.3796L104.66 32.1429C104.647 32.5888 104.632 32.9872 104.614 33.3431C104.602 33.6686 104.531 33.9893 104.405 34.29C104.309 34.518 104.198 34.6934 104.078 34.8138C103.958 34.9328 103.819 35.012 103.645 35.1026C103.469 35.1925 103.203 35.2166 102.865 35.2166C102.272 35.2166 101.788 35.0842 101.414 34.8188C101.23 34.6824 101.073 34.5134 100.95 34.3204C100.812 34.1095 100.741 33.8346 100.741 33.4964C100.741 33.11 100.851 32.7896 101.07 32.5356C101.288 32.2829 101.597 32.1562 101.997 32.1562C102.337 32.1562 102.606 32.2519 102.807 32.445C103.006 32.6382 103.107 32.8675 103.107 33.1322C103.107 33.4457 103.03 33.7231 102.876 33.9638C102.816 34.0487 102.761 34.1259 102.714 34.1988C102.671 34.2568 102.647 34.3256 102.643 34.397C102.643 34.4578 102.673 34.5364 102.734 34.6326C102.793 34.7283 102.926 34.7764 103.129 34.7764C103.298 34.7764 103.465 34.7257 103.633 34.6244C103.8 34.5218 103.982 34.3204 104.064 34.0848C104.147 33.8511 104.217 33.5914 104.235 33.2906C104.254 32.9897 104.269 32.6059 104.281 32.1372L104.353 29.3752C104.365 28.7741 104.377 28.2877 104.39 27.9147C104.401 27.5423 104.408 27.2478 104.408 27.0305V25.5694C104.408 25.3902 104.398 25.1793 104.379 24.9386C104.36 24.6956 104.269 24.4636 104.118 24.2717C104.027 24.1567 103.916 24.0591 103.79 23.9835C103.675 23.9145 103.554 23.857 103.428 23.8119C103.307 23.7701 103.113 23.7479 102.846 23.7479H102.41V23.3926H112.108V23.7485H112.107ZM72.6344 23.7599H71.1026L74.6922 31.2714L76.9357 25.5884C76.9956 25.4554 77.0556 25.2711 77.1085 25.0361C77.1621 24.8011 77.1908 24.6105 77.1908 24.4661C77.1908 24.2248 77.1085 24.0462 76.944 23.9316C76.7757 23.8156 76.5748 23.7555 76.37 23.7599H76.115V23.3983H79.2123V23.7599C78.9343 23.7599 78.7002 23.8081 78.5121 23.905C78.338 23.9914 78.1784 24.104 78.0389 24.2387C77.92 24.3535 77.8185 24.4847 77.7373 24.6282C77.6652 24.76 77.6155 24.8626 77.5912 24.9354L75.0207 31.5425C74.8746 31.9042 74.7152 32.2272 74.5762 32.5109C74.4378 32.7953 74.3083 33.0328 74.133 33.3159C73.9449 33.6193 73.8441 33.7858 73.6521 34.0341C73.4328 34.3191 73.3161 34.442 73.0565 34.6706C72.8321 34.8695 72.6178 35.0076 72.4054 35.0931C72.1694 35.1806 71.9189 35.223 71.667 35.2178C71.292 35.2178 70.9629 35.1608 70.683 35.0462C70.4205 34.9411 70.1752 34.7976 69.9554 34.6206C69.6391 34.3558 69.4363 34.081 69.3451 33.7972C69.2594 33.5496 69.2132 33.2902 69.208 33.0283C69.208 32.8706 69.2316 32.7142 69.28 32.5571C69.3285 32.3994 69.4006 32.2588 69.4994 32.1315C69.5963 32.0061 69.7239 31.8997 69.882 31.8155C70.0402 31.7312 70.2283 31.6882 70.4477 31.6882C70.836 31.6882 71.1275 31.7971 71.322 32.0144C71.5165 32.2316 71.6134 32.4501 71.6134 32.6648C71.6134 32.7984 71.5885 32.9314 71.5413 33.0644C71.4975 33.1871 71.4363 33.3028 71.3596 33.4084C71.2129 33.6022 71.0484 33.7497 70.8667 33.8517C70.6836 33.9543 70.5924 34.0835 70.5924 34.2406C70.5924 34.3609 70.6696 34.4933 70.8201 34.6396C70.9719 34.7834 71.2174 34.8556 71.5586 34.8556C71.8264 34.8556 72.0853 34.7897 72.3334 34.6573C72.5827 34.5243 72.7932 34.3679 72.9621 34.1867C73.0954 34.0417 73.2172 33.8796 73.3269 33.6984C73.4353 33.5167 73.5087 33.3963 73.545 33.3368L68.8796 23.7593H67.6214V23.3976H72.6344V23.7599ZM67.2362 26.5144C67.2131 26.3002 67.1676 26.089 67.1004 25.8842C67.027 25.6549 66.9186 25.4206 66.7726 25.1793C66.6266 24.9379 66.4327 24.7042 66.191 24.4743C65.7307 24.0373 65.1578 23.7351 64.5355 23.6009C63.9205 23.464 63.2922 23.3943 62.6619 23.3932H57.4806V23.7492H58.8619V34.8594H57.4806V35.2153H62.2487V34.8594H60.8674V30.519H62.6358C63.3507 30.519 64.0381 30.4392 64.6937 30.2764C65.3499 30.1137 65.8843 29.828 66.2981 29.4189C66.3829 29.334 66.4799 29.2232 66.5896 29.0864C66.698 28.9464 66.8038 28.7786 66.9084 28.5797C67.0105 28.3808 67.0965 28.1497 67.1635 27.8843C67.2298 27.6202 67.263 27.3193 67.263 26.983C67.2616 26.8265 67.2527 26.6701 67.2362 26.5144ZM64.3799 29.3904C64.2651 29.5247 64.137 29.6374 63.9641 29.7482C63.8091 29.8365 63.644 29.9062 63.4725 29.956C63.2958 30.0088 63.1161 30.0507 62.9342 30.0814C62.7717 30.1107 62.6079 30.1318 62.4432 30.1447C62.2914 30.1574 62.1792 30.1631 62.1059 30.1631H60.8681V23.7492H62.1059C62.4458 23.7492 62.801 23.7802 63.1721 23.8397C63.4961 23.8923 63.7971 24.0234 64.0789 24.2229C64.1 24.2387 64.1223 24.252 64.1427 24.2679C64.1612 24.2824 64.1829 24.2938 64.2014 24.309C64.297 24.3926 64.3844 24.48 64.459 24.5712C64.9436 25.1292 65.2536 25.983 65.2536 26.9387C65.2529 27.9464 64.9079 28.8362 64.3799 29.3904ZM88.0872 23.3932H87.6453C87.5484 23.7663 87.3367 23.9531 87.0089 23.9531C86.8756 23.9531 86.7372 23.9265 86.5918 23.8714C86.3862 23.7954 86.1803 23.7204 85.9739 23.6465C85.7521 23.5674 85.5249 23.5041 85.2941 23.4572C85.0519 23.4125 84.8058 23.3913 84.5595 23.3938C84.2693 23.3938 83.8956 23.3964 83.5257 23.4629C83.1571 23.5294 82.7535 23.5952 82.3186 23.7973C81.9347 23.9753 81.6885 24.1083 81.3199 24.4319C80.9513 24.7562 80.6038 25.1704 80.276 25.6745C79.9138 26.2642 79.6555 26.8678 79.505 27.4859C79.3545 28.1041 79.2786 28.757 79.2786 29.4411C79.2786 30.2467 79.3685 30.9554 79.5516 31.5672C79.7333 32.1803 79.9635 32.7155 80.2428 33.1715C80.4788 33.5456 80.7626 33.8877 81.0871 34.1893C81.3795 34.4549 81.712 34.6736 82.0724 34.8372C82.4346 35.0082 82.7573 35.1184 83.1048 35.1621C83.4641 35.2021 83.8255 35.221 84.187 35.2185C84.5882 35.2185 84.9606 35.1754 85.3056 35.088C85.6454 35.0036 85.9724 34.8748 86.2781 34.7048C86.4598 34.6092 86.6269 34.5186 86.7774 34.4344C86.9292 34.3501 86.9432 34.3083 87.1001 34.3083C87.2219 34.3083 87.3156 34.3381 87.3813 34.3995C87.4483 34.4591 87.5031 34.5281 87.5458 34.606C87.5879 34.6858 87.6179 34.7656 87.637 34.8505C87.6542 34.9341 87.6619 35.1805 87.6619 35.2159H88.0719L88.0732 31.2835H87.7416C87.748 31.3709 87.7518 31.4583 87.7518 31.5488C87.7518 32.1759 87.579 32.7478 87.2958 33.1867C87.2812 33.212 87.2659 33.2374 87.2487 33.2627C86.9275 33.7376 86.4993 34.1316 85.9981 34.4135C85.479 34.7124 84.9644 34.8619 84.4561 34.8619C84.1309 34.8619 83.805 34.7897 83.4773 34.6466C83.1712 34.5148 82.8889 34.3345 82.6412 34.1126C82.4752 33.9648 82.3238 33.8015 82.1891 33.625C82.0412 33.4217 81.92 33.2095 81.7433 32.6977C81.7095 32.6033 81.6816 32.5068 81.6598 32.4089C81.464 31.5887 81.3473 30.5235 81.3473 29.3581C81.3473 27.0913 81.7982 25.6087 82.3115 24.9677C82.339 24.9316 82.4148 24.8429 82.4435 24.8075C82.5511 24.6805 82.6668 24.5606 82.7898 24.4484C82.927 24.3164 83.0827 24.2048 83.2522 24.1171C83.4609 24.0015 83.6824 23.9102 83.9122 23.8448C84.166 23.7732 84.4663 23.7485 84.7705 23.7485C85.2552 23.7485 85.6895 23.8499 86.0772 24.0544C86.4643 24.2571 86.7736 24.5142 87.0038 24.8246C87.1122 24.9804 87.2091 25.166 87.2939 25.3813C87.3787 25.596 87.4508 25.8196 87.512 26.0533C87.5732 26.287 87.6217 26.5074 87.6581 26.7164C87.6931 26.9267 87.718 27.0964 87.7288 27.2275H88.0885V23.3932H88.0872Z" fill="#EDEDED"/>
</g>
<defs>
<clipPath id="clip0_882_3577">
<rect width="119.46" height="63.878" fill="white" transform="translate(0.0319824 0.165039)"/>
</clipPath>
</defs>
</svg>
