<svg width="136" height="63" viewBox="0 0 136 63" fill="none" xmlns="http://www.w3.org/2000/svg">
<path fill-rule="evenodd" clip-rule="evenodd" d="M56.3152 0.0390625H0V34.9945H14.0788C11.7885 31.9726 10.5525 28.2916 10.5581 24.5093C10.5581 14.8562 18.4374 7.03 28.1576 7.03C37.8771 7.03 45.7563 14.8562 45.7563 24.5093C45.7563 28.4441 44.4464 32.0743 42.2372 34.9945H56.3145L56.3152 0.0390625Z" fill="black"/>
<path fill-rule="evenodd" clip-rule="evenodd" d="M21.3331 21.0117H21.1186V62.9612H63.355V62.7466C43.1819 56.8436 27.279 41.0493 21.3331 21.0117Z" fill="#FE000C"/>
<path fill-rule="evenodd" clip-rule="evenodd" d="M110.665 32.3645C110.593 32.5394 110.504 32.7928 110.404 33.1265C110.301 33.4609 110.251 33.7365 110.251 33.9541C110.251 34.1571 110.299 34.3144 110.392 34.4221C110.488 34.5328 110.638 34.6221 110.842 34.6954C110.959 34.7229 111.093 34.748 111.248 34.7702C111.402 34.7931 111.536 34.8122 111.653 34.8244V35.2504H107.967V34.8244C108.2 34.7961 108.43 34.7228 108.656 34.6068C108.882 34.4915 109.076 34.3533 109.237 34.1945C109.367 34.0487 109.477 33.8922 109.566 33.725C109.653 33.5601 109.711 33.4319 109.742 33.3448L114.519 20.9998H114.913L119.846 34.8244H121.313V35.2504H115.346V34.8244H117.276L115.681 30.4254H111.451L110.665 32.3645ZM113.664 24.5888L111.561 29.9971H115.528L113.664 24.5888ZM135.098 21.4281H133.433V34.8206H135.098V35.2504H129.352V34.8206H131.017V21.4281H128.579C128.388 21.4281 128.125 21.4502 127.789 21.4945C127.453 21.5365 127.159 21.6747 126.911 21.9075C126.715 22.082 126.573 22.3085 126.503 22.5603C126.441 22.7893 126.394 23.0218 126.361 23.2566C126.333 23.4886 126.309 23.7452 126.293 24.0269C126.28 24.3116 126.27 24.6445 126.262 25.0285C126.254 25.4125 126.247 25.8668 126.241 26.3882C126.232 26.9104 126.222 27.5197 126.207 28.2159L126.121 31.5469C126.106 32.0844 126.088 32.5646 126.066 32.9936C126.051 33.386 125.966 33.7726 125.814 34.135C125.698 34.4098 125.565 34.6213 125.42 34.7664C125.276 34.9099 125.108 35.0053 124.897 35.1145C124.686 35.2229 124.365 35.2519 123.957 35.2519C123.242 35.2519 122.659 35.0924 122.209 34.7725C121.987 34.6081 121.797 34.4044 121.65 34.1716C121.483 33.9174 121.398 33.5861 121.398 33.1784C121.398 32.7127 121.53 32.3264 121.794 32.0202C122.057 31.7156 122.429 31.5629 122.911 31.5629C123.321 31.5629 123.645 31.6782 123.887 31.9111C124.128 32.1439 124.249 32.4203 124.249 32.7394C124.249 33.1173 124.156 33.4517 123.97 33.7418C123.898 33.8441 123.832 33.9373 123.775 34.0251C123.724 34.095 123.695 34.1779 123.69 34.264C123.69 34.3373 123.726 34.432 123.8 34.548C123.87 34.6633 124.031 34.7213 124.276 34.7213C124.48 34.7213 124.681 34.6602 124.884 34.5381C125.085 34.4144 125.304 34.1716 125.403 33.8876C125.502 33.6059 125.588 33.2929 125.609 32.9303C125.632 32.5676 125.65 32.105 125.665 31.54L125.751 28.2106C125.765 27.4861 125.78 26.8997 125.795 26.4501C125.809 26.0012 125.818 25.6462 125.818 25.3843V23.623C125.818 23.407 125.805 23.1527 125.783 22.8626C125.76 22.5697 125.65 22.2901 125.468 22.0587C125.358 21.9202 125.224 21.8025 125.073 21.7113C124.934 21.6282 124.788 21.5589 124.636 21.5044C124.491 21.454 124.256 21.4273 123.935 21.4273H123.409V20.999H135.099V21.4281H135.098ZM87.5169 21.4418H85.6705L89.9975 30.4964L92.7018 23.6459C92.7741 23.4856 92.8464 23.2634 92.9102 22.9802C92.9747 22.6969 93.0093 22.4671 93.0093 22.2931C93.0093 22.0022 92.9102 21.7869 92.7118 21.6487C92.509 21.5089 92.2668 21.4365 92.02 21.4418H91.7125V21.0059H95.4461V21.4418C95.111 21.4418 94.8288 21.4998 94.6021 21.6167C94.3922 21.7208 94.1999 21.8565 94.0317 22.019C93.8884 22.1573 93.7659 22.3155 93.6681 22.4885C93.5812 22.6473 93.5213 22.771 93.4921 22.8588L90.3934 30.8231C90.2174 31.2591 90.0252 31.6484 89.8576 31.9905C89.6908 32.3332 89.5348 32.6195 89.3234 32.9608C89.0966 33.3265 88.9752 33.5273 88.7438 33.8266C88.4793 34.1701 88.3387 34.3182 88.0258 34.5938C87.7552 34.8336 87.497 35 87.241 35.1031C86.9565 35.2086 86.6544 35.2596 86.3508 35.2534C85.8988 35.2534 85.5022 35.1847 85.1647 35.0466C84.8483 34.9198 84.5527 34.7469 84.2876 34.5335C83.9063 34.2144 83.6619 33.8831 83.552 33.541C83.4487 33.2425 83.3929 32.9298 83.3867 32.6142C83.3867 32.4241 83.4151 32.2355 83.4736 32.0462C83.532 31.8561 83.6188 31.6866 83.738 31.5331C83.8548 31.382 84.0086 31.2537 84.1992 31.1522C84.3898 31.0506 84.6166 30.9987 84.8811 30.9987C85.3492 30.9987 85.7005 31.13 85.9349 31.3919C86.1694 31.6538 86.2862 31.9172 86.2862 32.176C86.2862 32.3371 86.2563 32.4974 86.1994 32.6577C86.1465 32.8055 86.0727 32.9451 85.9803 33.0723C85.8035 33.3059 85.6052 33.4838 85.3861 33.6067C85.1655 33.7304 85.0555 33.8861 85.0555 34.0754C85.0555 34.2205 85.1486 34.3801 85.33 34.5564C85.5129 34.7297 85.8089 34.8168 86.2201 34.8168C86.543 34.8168 86.8551 34.7374 87.1541 34.5778C87.4547 34.4175 87.7083 34.2289 87.912 34.0105C88.0727 33.8357 88.2195 33.6403 88.3517 33.4219C88.4824 33.2028 88.5708 33.0578 88.6146 32.986L82.9908 21.4411H81.4742V21.0051H87.5169V21.4418ZM81.0099 24.7621C80.982 24.5039 80.9272 24.2493 80.8461 24.0024C80.7577 23.7261 80.627 23.4436 80.451 23.1527C80.275 22.8618 80.0413 22.5801 79.75 22.303C79.1951 21.7762 78.5045 21.4119 77.7544 21.2502C77.013 21.0851 76.2557 21.0011 75.4959 20.9998H69.2502V21.4288H70.9152V34.8213H69.2502V35.2504H74.9978V34.8213H73.3328V29.5894H75.4644C76.3261 29.5894 77.1548 29.4932 77.945 29.297C78.736 29.1008 79.3802 28.7565 79.8791 28.2633C79.9813 28.161 80.0982 28.0274 80.2304 27.8625C80.3611 27.6937 80.4887 27.4914 80.6147 27.2517C80.7377 27.012 80.8415 26.7333 80.9222 26.4134C81.0022 26.0951 81.0421 25.7324 81.0421 25.327C81.0405 25.1383 81.0297 24.9498 81.0099 24.7621ZM77.5668 28.2289C77.4285 28.3908 77.274 28.5267 77.0656 28.6603C76.8787 28.7667 76.6798 28.8507 76.473 28.9107C76.2601 28.9743 76.0434 29.0248 75.8242 29.0618C75.6283 29.0972 75.4307 29.1227 75.2323 29.1382C75.0493 29.1535 74.914 29.1603 74.8256 29.1603H73.3336V21.4288H74.8256C75.2354 21.4288 75.6635 21.4663 76.1109 21.538C76.5014 21.6014 76.8642 21.7594 77.204 21.9999C77.2294 22.019 77.2563 22.035 77.2809 22.0541C77.3032 22.0717 77.3293 22.0854 77.3516 22.1037C77.4669 22.2045 77.5722 22.3099 77.6621 22.4198C78.2464 23.0924 78.62 24.1215 78.62 25.2736C78.6192 26.4882 78.2033 27.5609 77.5668 28.2289ZM106.144 20.9998H105.611C105.495 21.4495 105.239 21.6747 104.844 21.6747C104.684 21.6747 104.517 21.6426 104.342 21.5762C104.094 21.4846 103.845 21.3942 103.597 21.3052C103.329 21.2097 103.056 21.1335 102.777 21.0769C102.485 21.023 102.189 20.9974 101.892 21.0005C101.542 21.0005 101.091 21.0036 100.646 21.0838C100.201 21.1639 99.7147 21.2433 99.1905 21.4869C98.7277 21.7014 98.431 21.8617 97.9867 22.2518C97.5424 22.6427 97.1234 23.142 96.7283 23.7497C96.2917 24.4605 95.9804 25.1881 95.799 25.9332C95.6175 26.6783 95.5261 27.4655 95.5261 28.29C95.5261 29.2611 95.6344 30.1154 95.8551 30.8529C96.0741 31.5919 96.3516 32.237 96.6883 32.7867C96.9727 33.2377 97.3148 33.6501 97.7061 34.0136C98.0586 34.3338 98.4593 34.5974 98.8938 34.7946C99.3304 35.0007 99.7193 35.1336 100.138 35.1863C100.571 35.2345 101.007 35.2572 101.443 35.2542C101.926 35.2542 102.375 35.2023 102.791 35.0969C103.201 34.9952 103.595 34.8399 103.963 34.6351C104.182 34.5198 104.384 34.4106 104.565 34.3091C104.748 34.2075 104.765 34.1571 104.954 34.1571C105.101 34.1571 105.214 34.193 105.293 34.2671C105.374 34.3388 105.44 34.422 105.492 34.516C105.542 34.6121 105.578 34.7083 105.601 34.8106C105.622 34.9114 105.631 35.2084 105.631 35.2512H106.126L106.127 30.5109H105.728C105.735 30.6162 105.74 30.7216 105.74 30.8308C105.74 31.5866 105.532 32.276 105.19 32.8051C105.173 32.8356 105.154 32.8661 105.133 32.8967C104.746 33.4691 104.23 33.9441 103.626 34.2839C103 34.6442 102.38 34.8244 101.767 34.8244C101.375 34.8244 100.982 34.7374 100.587 34.5648C100.218 34.4061 99.8779 34.1887 99.5794 33.9212C99.3793 33.743 99.1968 33.5461 99.0344 33.3334C98.8561 33.0883 98.71 32.8325 98.4971 32.2157C98.4563 32.1018 98.4226 31.9856 98.3964 31.8675C98.1604 30.8789 98.0197 29.5947 98.0197 28.19C98.0197 25.4576 98.5632 23.6703 99.182 22.8977C99.2151 22.8542 99.3065 22.7473 99.3411 22.7046C99.4708 22.5516 99.6102 22.407 99.7585 22.2717C99.9239 22.1126 100.112 21.9781 100.316 21.8724C100.568 21.7331 100.834 21.6229 101.111 21.5441C101.417 21.4579 101.779 21.4281 102.146 21.4281C102.73 21.4281 103.254 21.5502 103.721 21.7968C104.188 22.0411 104.561 22.3511 104.838 22.7252C104.969 22.913 105.086 23.1367 105.188 23.3963C105.29 23.6551 105.377 23.9246 105.451 24.2063C105.525 24.488 105.583 24.7537 105.627 25.0056C105.669 25.2591 105.699 25.4637 105.712 25.6217H106.146V20.9998H106.144Z" fill="black"/>
</svg>
