<svg width="178" height="77" viewBox="0 0 178 77" fill="none" xmlns="http://www.w3.org/2000/svg">
<path d="M6.45451 38.2221C6.45451 19.7014 40.0295 4.18986 85.0833 0.175293C36.8938 3.03213 0 19.0276 0 38.3331C0 58.6306 40.7859 75.2709 92.6039 76.8242C43.8173 73.9505 6.45451 57.7605 6.45451 38.2221Z" fill="#0086C5"/>
<path d="M105.525 57.4642H98.4094L103.82 27.3008H110.943L108.929 38.4808L112.719 38.4842L114.725 27.3042L121.828 27.3008L116.428 57.4642L109.319 57.4677L111.9 43.0518L108.111 43.0495L105.525 57.4642Z" fill="#0086C5"/>
<path d="M127.028 44.1156C127.149 43.4336 127.547 43.0914 128.225 43.0914C128.896 43.0914 129.172 43.4336 129.049 44.1156L128.621 46.463H126.599L127.028 44.1156ZM133.771 44.8103C133.834 44.4071 133.865 44.0441 133.865 43.7222C133.865 42.3514 133.363 41.3528 132.362 40.7277C131.525 40.2038 130.331 39.9419 128.777 39.9419C126.896 39.9419 125.375 40.3646 124.211 41.211C123.046 42.0551 122.331 43.2547 122.065 44.8045L120.596 53.0491C120.537 53.3524 120.504 53.645 120.504 53.9251C120.504 55.1751 121.002 56.1215 122.004 56.7638C122.901 57.3494 124.107 57.6405 125.619 57.6405C127.437 57.6405 128.896 57.3006 129.998 56.6186C131.223 55.8571 131.98 54.7047 132.266 53.1606L132.727 50.6325H127.918L127.522 52.8463C127.419 53.3859 127.266 53.7933 127.064 54.0738C126.863 54.3515 126.578 54.4925 126.211 54.4925C125.705 54.4925 125.452 54.1417 125.452 53.4382V52.8371L126.067 49.3459H132.942L133.771 44.8103Z" fill="white"/>
<path d="M148.377 43.8906C148.851 43.8906 149.091 44.1353 149.091 44.6232V44.7993C149.091 44.8776 149.077 44.9571 149.056 45.0338L147.761 52.5314C147.598 53.3063 147.223 53.6944 146.649 53.6944C146.091 53.6944 145.811 53.415 145.811 52.8556V52.7221C145.811 52.6517 145.822 52.5866 145.841 52.5268L147.135 45.0303C147.301 44.2706 147.716 43.8906 148.377 43.8906ZM142.839 42.4199C142.839 41.5125 142.641 40.8735 142.241 40.5006C141.842 40.1283 141.185 39.9424 140.267 39.9424C139.021 39.9424 138.021 40.4065 137.263 41.333C136.651 42.0776 136.234 43.0838 136.008 44.3524L134.324 53.8959C134.303 54.0174 134.277 54.1841 134.247 54.3955C134.216 54.6065 134.2 54.7924 134.2 54.9537C134.2 55.8001 134.431 56.4589 134.891 56.9324C135.349 57.4051 136.058 57.641 137.019 57.641C137.854 57.641 138.563 57.4289 139.145 57.0062C139.724 56.5804 140.208 55.9634 140.596 55.153L139.502 61.2786H144.249L145.413 55.2459C145.413 56.0946 145.642 56.7063 146.103 57.0811C146.56 57.454 147.241 57.641 148.14 57.641C149.384 57.641 150.386 57.1786 151.142 56.2527C151.733 55.5278 152.141 54.5519 152.367 53.3232L154.083 43.7779C154.102 43.6578 154.127 43.4876 154.159 43.2651C154.188 43.0444 154.203 42.8434 154.203 42.6604C154.203 41.796 153.982 41.1257 153.531 40.6522C153.084 40.1806 152.373 39.9424 151.392 39.9424C150.538 39.9424 149.793 40.1689 149.162 40.6207C148.531 41.071 148.021 41.6973 147.634 42.4994L148.814 35.9062H144.065L142.839 42.4199ZM141.771 43.8906C142.238 43.8906 142.472 44.1353 142.472 44.6243C142.472 44.7027 142.45 44.8387 142.413 45.0338L141.112 52.5314C140.948 53.3063 140.587 53.6944 140.031 53.6944C139.556 53.6944 139.316 53.4458 139.316 52.9486V52.7696C139.316 52.6901 139.338 52.6117 139.375 52.5326L140.672 45.0361C140.839 44.2729 141.203 43.8906 141.771 43.8906Z" fill="white"/>
<path d="M165.631 43.2698H163.15L160.609 57.4644H155.768L158.295 43.2698L155.845 43.2662L156.409 40.1201H166.183L165.631 43.2698Z" fill="white"/>
<path d="M172.399 49.7798C172.654 49.9511 172.781 50.2782 172.781 50.7592C172.781 51.1403 172.742 51.5429 172.66 51.9639C172.454 53.0282 172.21 53.6996 171.923 53.9815C171.638 54.2638 171.055 54.4044 170.176 54.4044L171.064 49.5248C171.697 49.5248 172.143 49.6096 172.399 49.7798ZM177.73 49.6746C177.73 48.32 177.262 47.4407 176.325 47.0381C175.57 46.7144 173.981 46.5523 171.556 46.5523L172.751 40.1201H167.91L164.818 57.4644H169.651C172.468 57.4644 174.368 57.1362 175.361 56.4793C176.347 55.8228 177.055 54.3318 177.487 52.0082C177.649 51.038 177.73 50.2608 177.73 49.6746Z" fill="white"/>
<path d="M136.066 30.1147C137.467 35.6808 132.252 38.3198 129.213 37.8557C126.169 37.3903 122.015 33.3206 125.054 28.4306C128.357 23.1155 132.596 16.3242 132.596 16.3242C132.596 16.3242 134.802 25.0929 136.066 30.1147Z" fill="white"/>
<path d="M133.191 28.5881C133.612 30.2629 132.046 31.0558 131.133 30.9163C130.217 30.7753 128.968 29.5512 129.883 28.0834C130.875 26.4824 132.149 24.4424 132.149 24.4424C132.149 24.4424 132.81 27.0791 133.191 28.5881Z" fill="white"/>
<path d="M43.1929 26.6326C44.6373 26.6326 45.3607 27.2734 45.3607 28.5542C45.3607 28.8324 45.3089 29.2996 45.2088 29.9553C45.1075 30.6113 45.0279 31.1334 44.9702 31.5238C44.6226 33.4182 44.2332 34.7024 43.7998 35.3698C43.3668 36.0392 42.5586 36.3737 41.3745 36.3737H40.2476L42.0679 26.6326H43.1929ZM39.4859 40.7542H42.1062C44.3958 40.7542 46.3993 40.2315 48.1177 39.1864C50.0621 38.002 51.2226 36.3498 51.5968 34.2343L52.5839 28.7292C52.6694 28.165 52.7125 27.6557 52.7125 27.2042C52.7125 25.3152 51.9691 23.9867 50.4797 23.224C49.2199 22.5752 47.2016 22.251 44.4253 22.251H35.7075L30.2975 52.4599H37.4253L39.4859 40.7542Z" fill="#EC2C2E"/>
<path fill-rule="evenodd" clip-rule="evenodd" d="M43.1929 26.6326C44.6373 26.6326 45.3607 27.2734 45.3607 28.5542C45.3607 28.8324 45.3089 29.2996 45.2088 29.9553C45.1075 30.6113 45.0279 31.1334 44.9702 31.5238C44.6226 33.4182 44.2332 34.7024 43.7998 35.3698C43.3668 36.0392 42.5586 36.3737 41.3745 36.3737H40.2476L42.0679 26.6326H43.1929ZM39.4859 40.7542H42.1062C44.3958 40.7542 46.3993 40.2315 48.1177 39.1864C50.0621 38.002 51.2226 36.3498 51.5968 34.2343L52.5839 28.7292C52.6694 28.165 52.7125 27.6557 52.7125 27.2042C52.7125 25.3152 51.9691 23.9867 50.4797 23.224C49.2199 22.5752 47.2016 22.251 44.4253 22.251H35.7075L30.2975 52.4599H37.4253L39.4859 40.7542Z" fill="#EC2C2E" stroke="white" stroke-width="0.00881627" stroke-miterlimit="2"/>
<path d="M54.1405 30.7837H59.2338L58.6976 43.2083L62.6834 30.7837H66.9247L59.4688 49.7173C58.6823 51.7468 57.1319 52.761 54.8175 52.761H50.7711L51.3767 49.4768H53.9939C54.5895 49.4768 54.9193 49.3101 54.9818 48.9759V48.1912L54.1405 30.7837Z" fill="white"/>
<path d="M76.2955 38.9412L76.8269 35.8118V35.3855C76.8269 34.6355 76.4758 34.2591 75.7754 34.2591C75.3336 34.2591 74.9772 34.4061 74.705 34.7C74.4316 34.9963 74.2697 35.3594 74.2179 35.7927L72.1549 47.2258V47.6853C72.1549 48.4022 72.5012 48.7594 73.194 48.7594C73.6552 48.7594 74.0064 48.6187 74.2509 48.3411C74.4959 48.064 74.6561 47.694 74.7332 47.2369L75.3489 42.6432H81.4288L80.8491 47.0365C80.4898 48.9841 79.5373 50.4353 77.9933 51.3955C76.603 52.2574 74.7504 52.6863 72.434 52.6863C70.35 52.6863 68.7613 52.3052 67.6679 51.5413C66.5741 50.7791 66.0273 49.6081 66.0273 48.0316C66.0273 47.802 66.0479 47.5489 66.085 47.2712C66.1239 46.9905 66.1563 46.774 66.1829 46.6211L67.999 36.4352C68.3077 34.6297 69.2214 33.1619 70.7406 32.0296C72.2609 30.8969 74.156 30.3311 76.4227 30.3311C78.4067 30.3311 79.9278 30.6633 80.9822 31.3284C82.2446 32.1202 82.8768 33.3844 82.8768 35.1189C82.8768 35.5273 82.8366 35.9891 82.7606 36.4984L82.4119 38.9412H76.2955Z" fill="white"/>
<path d="M93.298 39.0179L93.8293 35.8885V35.4621C93.8293 34.711 93.4787 34.3352 92.7778 34.3352C92.336 34.3352 91.982 34.4816 91.708 34.7767C91.4353 35.0718 91.2715 35.4349 91.2203 35.8682L89.1574 47.3025V47.762C89.1574 48.4777 89.503 48.8337 90.1971 48.8337C90.6572 48.8337 91.0106 48.6967 91.2532 48.4177C91.4983 48.1383 91.6586 47.7695 91.7363 47.3124L92.352 42.7175H98.4317L97.852 47.112C97.4927 49.0597 96.5402 50.512 94.9962 51.4728C93.6048 52.333 91.7527 52.7618 89.4366 52.7618C87.3529 52.7618 85.7648 52.3807 84.671 51.6192C83.577 50.8557 83.0303 49.6859 83.0303 48.1077C83.0303 47.8798 83.051 47.6267 83.0882 47.3454C83.127 47.066 83.1594 46.8495 83.1858 46.6977L85.0014 36.5113C85.3095 34.7052 86.2237 33.2374 87.7441 32.1057C89.2627 30.9736 91.159 30.4077 93.4269 30.4077C95.4093 30.4077 96.9302 30.7411 97.9851 31.404C99.2477 32.1946 99.8791 33.4599 99.8791 35.1944C99.8791 35.6051 99.8403 36.0657 99.7632 36.5751L99.4154 39.0179H93.298Z" fill="white"/>
<path d="M55.6445 28.7234H54.4874L55.4247 22.9349H56.5823L56.2241 25.1307L58.036 22.9326L59.4811 22.9349L57.5413 25.1794L58.6221 28.7234H57.2101L56.5269 26.2448L55.943 26.8971L55.6445 28.7234Z" fill="white"/>
<path d="M63.4636 24.4227C63.5753 24.6109 63.629 24.8752 63.629 25.2143C63.629 25.431 63.6107 25.6378 63.5753 25.8331C63.4934 26.3094 63.3645 26.6975 63.1878 26.9937C62.9427 27.3904 62.6223 27.5914 62.2224 27.5914C61.9196 27.5914 61.6979 27.4747 61.5583 27.2428C61.4471 27.0547 61.3923 26.7985 61.3923 26.4725C61.3923 26.3641 61.3971 26.256 61.4081 26.1485C61.4199 26.0393 61.4323 25.9346 61.4471 25.8331C61.5277 25.355 61.6574 24.9681 61.8358 24.6724C62.0797 24.2738 62.3991 24.0753 62.7978 24.0753C63.1017 24.0753 63.3232 24.1909 63.4636 24.4227ZM63.7185 28.1381C64.2563 27.5937 64.6051 26.8259 64.7664 25.8331C64.7965 25.6595 64.8142 25.5297 64.8213 25.4473C64.83 25.3644 64.8331 25.2203 64.8331 25.017C64.8331 24.2855 64.6569 23.7239 64.3035 23.3324C63.9794 22.9704 63.546 22.7886 63.0027 22.7886C62.3614 22.7886 61.7992 23.0348 61.3144 23.5286C60.7696 24.0788 60.4204 24.8479 60.2659 25.8331C60.2147 26.1379 60.1882 26.4127 60.1882 26.6597C60.1882 27.3904 60.3655 27.9522 60.7184 28.3437C61.0482 28.6997 61.4829 28.8781 62.0203 28.8781C62.66 28.8781 63.2267 28.6306 63.7185 28.1381Z" fill="white"/>
<path d="M70.984 24.7739L69.2414 28.7223H68.2594L67.7953 24.7739H67.7628C67.7563 24.8605 67.7458 24.9606 67.734 25.0727C67.7239 25.1859 67.7076 25.3131 67.6857 25.4582L67.1567 28.7223H66.0758L67.0137 22.9326H68.5906L69.0312 26.871H69.0653L70.7761 22.9349L72.3612 22.9326L71.4245 28.7223H70.3436L70.8721 25.4582C70.9014 25.27 70.932 25.1179 70.961 25.0012C70.9669 24.9443 70.9869 24.8688 71.0158 24.7739H70.984Z" fill="white"/>
<path d="M77.4482 28.7223H76.2908L77.0176 24.164H75.3752L74.6366 28.7223H73.4784L74.4157 22.9326H78.3742L77.4482 28.7223Z" fill="white"/>
<path d="M82.2735 26.6475C82.2147 26.9891 82.0644 27.2649 81.8224 27.4747C81.5808 27.6855 81.3233 27.7913 81.0523 27.7913C80.9282 27.7913 80.8238 27.7501 80.7396 27.6709C80.6553 27.5914 80.6136 27.4596 80.6136 27.2794C80.6136 27.2428 80.6164 27.1819 80.6241 27.0936C80.6677 26.7973 80.7779 26.5831 80.9541 26.4522C81.0784 26.3581 81.2686 26.2855 81.5208 26.2357C81.7735 26.1834 81.9643 26.1322 82.092 26.0782C82.2206 26.0235 82.3177 25.9666 82.3849 25.9091L82.2735 26.6475ZM83.7516 24.4622C83.7592 24.4202 83.7705 24.3547 83.7845 24.2669V24.0939C83.7845 23.7087 83.6737 23.4096 83.4542 23.1906C83.1819 22.9227 82.7896 22.7886 82.276 22.7886C81.7169 22.7886 81.2732 22.9047 80.9423 23.1348C80.4869 23.4502 80.1665 24.0073 79.9838 24.8025H81.0954C81.155 24.5701 81.2315 24.393 81.3269 24.2692C81.473 24.088 81.6744 23.9981 81.9319 23.9981C82.1151 23.9981 82.2735 24.0288 82.4061 24.0905C82.538 24.1525 82.6047 24.2844 82.6047 24.4883C82.6047 24.5237 82.5951 24.6027 82.5769 24.7224C82.558 24.8426 82.498 24.942 82.3943 25.0215C82.3284 25.0727 82.2335 25.1082 82.108 25.1308L81.0289 25.337C80.6254 25.4096 80.2843 25.6001 80.005 25.9097C79.7252 26.2188 79.5461 26.644 79.4655 27.1888C79.443 27.3126 79.4324 27.3975 79.4324 27.4438V27.614C79.4324 28.0417 79.5379 28.3652 79.7494 28.583C79.938 28.7793 80.1924 28.8781 80.5128 28.8781C80.8556 28.8781 81.1679 28.7818 81.4518 28.5934C81.6196 28.475 81.8199 28.2891 82.0526 28.034V28.3949C82.0526 28.4244 82.0551 28.4709 82.0574 28.5365C82.0621 28.6011 82.0681 28.6637 82.0745 28.7224H83.3214L83.354 28.497C83.2938 28.4675 83.255 28.4267 83.2319 28.3721C83.2102 28.3175 83.1996 28.2245 83.1996 28.095C83.1996 27.9783 83.215 27.8127 83.2443 27.5937L83.7516 24.4622Z" fill="white"/>
<path d="M89.0365 28.7223H87.8786L88.2425 26.4272H86.5997L86.2238 28.7223H85.0662L86.004 22.9326H87.1622L86.7863 25.2177H88.4416L88.8038 22.9326H89.9639L89.0365 28.7223Z" fill="white"/>
<path d="M95.0581 28.7234H93.8993L94.4619 25.244L92.3335 28.7234H91.0875L92.0254 22.9349H93.1841L92.6233 26.4021L94.7464 22.9326L95.9847 22.9349L95.0581 28.7234Z" fill="white"/>
<path d="M99.2343 25.439C98.852 25.439 98.6623 25.2428 98.6623 24.8488C98.6623 24.8059 98.6659 24.739 98.6735 24.6526C98.7189 24.4273 98.8097 24.25 98.9533 24.1228C99.097 23.995 99.2698 23.9312 99.4758 23.9312H100.246L99.9936 25.439H99.2343ZM98.1285 28.7223L99.5954 26.4046H99.8382L99.4629 28.7223H100.619L101.558 22.9326H99.6066C99.0199 22.9326 98.5463 23.0725 98.1845 23.3513C97.8258 23.6309 97.6026 24.0572 97.5131 24.63C97.4912 24.7461 97.4807 24.8285 97.4807 24.8751V25.0441C97.4807 25.4571 97.5795 25.7987 97.7799 26.0676C97.9549 26.2914 98.1398 26.4046 98.3308 26.4046L96.7502 28.7223H98.1285Z" fill="white"/>
</svg>
