<svg xmlns="http://www.w3.org/2000/svg" width="163" height="30" fill="none"><g fill="#008C95" clip-path="url(#a)"><path d="M30.648 12.972s.764-8.563.841-9.401a3.597 3.597 0 0 0-1-2.662 3.677 3.677 0 0 0-1.197-.834 3.71 3.71 0 0 0-1.433-.305H6.007a3.872 3.872 0 0 0-2.769.907 3.787 3.787 0 0 0-1.327 2.568C1.814 4.249 0 24.95-.11 26.14a3.603 3.603 0 0 0 .87 2.838c.338.387.755.698 1.222.915.468.216.977.333 1.494.343H25.2c2.886 0 4.005-1.51 4.25-3.84.15-1.395.862-9.823.862-9.823H17.176l-.563 6.515h-3.326l1.43-16.171h3.326l-.531 6.054h13.136ZM50.915 2.374c-.466 1.331-4.29 13.163-4.29 13.163l1.702-15.78h-13.13l-2.75 30.48h9.894c2.485 0 3.332-1.395 3.747-2.515.498-1.331 4.141-11.289 4.141-11.289l-1.34 13.804h13.137L64.73-.23H54.422a3.644 3.644 0 0 0-2.198.716 3.576 3.576 0 0 0-1.309 1.888ZM117.449-.23l-1.229 13.892h-3.333l1.23-13.892h-13.13s-1.262 14.718-1.397 16.132c-.156 1.696.815 4.096 3.72 4.096h12.353l-.271 3.09H98.955l-.647 7.148h26.136c1.773 0 3.482-1.145 3.715-3.59.149-1.567 2.407-26.876 2.407-26.876h-13.117ZM151.719-.224h-17.833l-2.692 30.46h13.129l.835-9.425h12.761c2.258 0 3.753-1.14 3.999-3.75.09-1.018 1.132-12.562 1.197-13.58.162-2.252-1.65-3.705-3.883-3.705h-7.513Zm-5.998 14.719.647-7.558h3.294l-.647 7.558h-3.294ZM80.306 10.002l.278-3.084h16.45L97.68-.23H68.076l-2.692 30.46h26.207c1.67 0 3.475-.973 3.708-3.52.175-1.92.984-10.968 1.133-12.613.194-2.194-1.217-4.095-3.98-4.095H80.306Zm2.123 13.893h-3.352l.647-7.551h3.345l-.64 7.55Z"/></g><defs><clipPath id="a"><path fill="#fff" d="M0 0h163v30H0z"/></clipPath></defs></svg>