<svg width="272" height="77" viewBox="0 0 272 77" fill="none" xmlns="http://www.w3.org/2000/svg">
<g clip-path="url(#clip0_765_3735)">
<path d="M30.285 16.0557C35.0352 28.6093 27.2849 36.6712 19.5764 44.7439C12.3886 52.9901 6.06551 61.5725 18.7952 77.0017C14.0449 64.4478 21.7848 56.3861 29.5037 48.3135C36.681 40.0564 43.0042 31.4957 30.285 16.0557Z" fill="#E84241"/>
<path d="M18.791 0C23.5413 12.5646 15.7911 20.6156 8.08248 28.6882C0.905178 36.9451 -5.42835 45.5278 7.3012 60.946C2.55106 48.3813 10.2908 40.3304 18.0098 32.2578C25.1974 24.0007 31.5102 15.4291 18.791 0Z" fill="#0AA373"/>
<path d="M215.031 49.459V75.4236H225.834V65.9187H237.855V60.2333H225.834V55.1444H249.691V75.4236H260.504V55.1444H270.328V49.459H215.031Z" fill="#0AA373"/>
<path d="M192.119 69.1971V64.6943H206.381V59.0089H192.119V54.5494H210.412V48.8638H181.306V74.8285H210.63V69.1971H192.119Z" fill="#0AA373"/>
<path d="M137.915 49.459H108.362V55.1444H118.029V75.4236H128.831V55.1444H137.915V49.459Z" fill="#E84241"/>
<path d="M77.0534 49.459H46.8025V55.1444H56.4694V75.4236H67.2822V55.1444H77.0534V49.459Z" fill="#E84241"/>
<path d="M98.4348 49.459H86.7781L73.1946 75.4236H80.2676L82.4968 70.9642H97.7473L99.9765 75.4236H112.019L98.4348 49.459ZM85.1948 65.5933L90.2263 55.5351L95.0389 65.5933H85.1948Z" fill="#E84241"/>
<path d="M167.462 49.459V62.4358L150.055 49.459H141.627V75.4236H149.065V61.1339L166.93 75.4236H174.899V49.459H167.462Z" fill="#0AA373"/>
</g>
<defs>
<clipPath id="clip0_765_3735">
<rect width="272" height="77" fill="white"/>
</clipPath>
</defs>
</svg>
