<svg width="401" height="41" viewBox="0 0 401 41" fill="none" xmlns="http://www.w3.org/2000/svg">
<g clip-path="url(#clip0_765_3759)">
<path fill-rule="evenodd" clip-rule="evenodd" d="M41.9032 0H43.7157C44.434 0.0601121 45.1411 0.180336 45.8537 0.30056C44.0132 3.10397 42.1782 5.90739 40.3207 8.69987C41.5048 6.57408 42.7617 4.49202 43.9627 2.37716C41.3028 2.13126 38.5249 2.69411 36.3138 4.19693C35.1242 4.99477 34.3218 6.19701 33.5249 7.3446C31.3027 10.6781 29.3554 14.1755 27.1894 17.5418C25.6405 19.9573 24.0356 22.3562 22.0602 24.4656C21.0781 25.4657 20.0064 26.4767 18.6427 26.9466C17.4473 27.2855 16.196 27.28 14.967 27.4165C16.1568 27.198 17.4362 27.2527 18.5305 26.6843C20.2196 25.7498 21.4316 24.2088 22.5765 22.7169C26.6562 17.121 29.406 10.7437 33.0536 4.89094C28.7438 1.99463 23.1993 0.918077 18.0927 2.07114C13.8559 2.98922 10.0287 5.42102 7.32949 8.71627C5.96023 8.55231 4.56854 8.73265 3.29468 9.22995C5.02869 6.71616 7.31265 4.55759 10.0063 3.02747C13.6651 0.918077 18.0254 0 22.2622 0.415321C26.2241 0.775993 30.0456 2.34438 33.1264 4.79258C34.8998 1.78698 38.48 0.284166 41.9032 0Z" fill="#005A9C"/>
<path fill-rule="evenodd" clip-rule="evenodd" d="M1.51973 12.3543C0.0157997 15.8955 -0.399465 19.8738 0.397395 23.6335C1.16059 27.4752 3.16957 31.0547 5.99786 33.8252C11.2616 39.2245 19.9205 41.0441 27.0474 38.4483C30.5041 37.1805 33.7196 35.1313 35.9979 32.2733C32.4851 33.8197 28.512 34.2624 24.7073 33.6885C17.8329 32.6558 11.2785 28.672 7.91146 22.6608C6.52537 20.1142 5.43109 17.0867 6.37946 14.2177C6.89574 12.8352 7.59159 11.2231 9.16848 10.7312C7.78801 10.2285 6.3009 9.87327 4.81942 10.0973C3.44455 10.2886 2.12019 11.1083 1.51973 12.3543Z" fill="#005A9C"/>
<path fill-rule="evenodd" clip-rule="evenodd" d="M39.9968 13.2846C38.8631 13.4157 37.6903 13.6835 36.7755 14.3775C35.2043 15.5251 33.9248 16.9897 32.679 18.4542C30.6252 20.9571 28.4591 23.367 26.3042 25.7878C25.2772 26.9082 24.1268 28.023 22.6285 28.5148C20.6812 29.1433 18.5769 29.1105 16.5791 28.728C17.8754 29.5422 19.1716 30.3729 20.5802 31.0012C23.1055 31.3128 25.6531 30.5476 27.7632 29.2197C31.0067 27.2634 33.3805 24.225 36.6802 22.3451C37.7576 21.662 38.9361 21.0882 40.2268 20.9243C42.1908 18.5252 44.0539 16.0552 45.9059 13.5797C43.9585 13.2682 41.9665 13.0769 39.9968 13.2846Z" fill="#005A9C"/>
<path fill-rule="evenodd" clip-rule="evenodd" d="M40.2566 20.9306C42.1703 20.6465 44.1343 21.0454 45.8852 21.8104C43.7022 24.6412 41.5024 27.4774 38.9716 30.0294C36.8728 32.188 33.7134 32.953 30.7561 33.0623C27.2769 33.1443 23.7527 32.4666 20.6045 31.0076C23.1297 31.3191 25.6775 30.554 27.7875 29.2261C31.0311 27.2696 33.4048 24.2314 36.7044 22.3515C37.7876 21.6683 38.9659 21.0891 40.2566 20.9306Z" fill="#FD4236"/>
<path fill-rule="evenodd" clip-rule="evenodd" d="M62.3607 4.11989C71.3967 4.1084 80.4389 4.11415 89.4749 4.11415C89.1087 6.87241 88.7426 9.6364 88.3764 12.4004C85.317 12.4004 82.251 12.4004 79.1916 12.4004C78.1179 20.0603 77.0442 27.7201 75.9705 35.38C72.2532 35.38 68.5295 35.38 64.8059 35.38C65.8796 27.7201 66.9533 20.0603 68.0268 12.4004C64.2535 12.3946 60.4803 12.4061 56.707 12.3946C58.5688 9.63064 60.4865 6.88964 62.3607 4.11989ZM92.8573 4.14288C91.9015 12.2567 90.952 20.3763 90.0025 28.4902C89.7542 30.7945 89.3447 33.0873 89.0158 35.38C92.7828 35.38 96.5436 35.38 100.311 35.38C100.596 33.4205 100.869 31.4552 101.155 29.4957C104.779 29.4901 108.403 29.5073 112.028 29.4843C115.311 29.4383 118.587 27.1513 119.01 24.0482C119.661 19.1581 120.319 14.268 120.958 9.37205C121.25 7.47002 120.046 5.51051 118.153 4.73476C117.11 4.25207 115.925 4.13714 114.765 4.16012C107.466 4.15438 100.162 4.14862 92.8573 4.14288ZM103.538 12.4061C105.499 12.4061 107.46 12.4061 109.421 12.4061C109.024 15.015 108.639 17.6238 108.242 20.227C108.217 20.7383 107.777 21.221 107.199 21.1981C105.549 21.2325 103.904 21.1981 102.253 21.2038C102.688 18.2731 103.091 15.3367 103.538 12.4061ZM129.355 5.82082C129.734 4.71752 130.987 4.07393 132.204 4.11415C137.566 4.11989 142.934 4.1084 148.296 4.11989C149.326 4.06243 150.437 4.70027 150.456 5.73463C151.647 15.6183 152.826 25.502 154.011 35.38C150.195 35.38 146.378 35.38 142.561 35.38C142.357 33.5699 142.158 31.7598 141.953 29.944C138.329 29.9727 134.698 30.0245 131.068 30.0589C130.41 31.8116 129.814 33.593 129.125 35.3399C127.866 35.2192 126.593 35.3168 125.333 35.2881C122.801 35.311 120.276 35.2421 117.75 35.3226C121.573 25.4733 125.495 15.6528 129.355 5.82082ZM137.758 13.5209C136.597 16.3883 135.437 19.2615 134.283 22.1289C136.529 22.1289 138.776 22.1289 141.022 22.1289C140.687 19.2615 140.334 16.3941 139.992 13.5209C139.247 13.5209 138.503 13.5209 137.758 13.5209ZM161.254 4.11415C165.015 4.11415 168.77 4.11415 172.531 4.11415C171.972 8.03316 171.425 11.9579 170.874 15.8769C172.996 15.8827 175.118 15.8769 177.24 15.8827C177.805 11.9579 178.346 8.03316 178.905 4.1084C182.869 4.11415 186.842 4.10266 190.807 4.11415C189.361 14.5323 187.934 24.9561 186.487 35.3744C182.523 35.3744 178.562 35.3744 174.597 35.3744C175.112 31.668 175.639 27.9616 176.155 24.2552C174.032 24.2552 171.904 24.2552 169.781 24.2552C169.259 27.9616 168.738 31.668 168.223 35.3744C164.469 35.3744 160.708 35.3744 156.947 35.3744C158.381 24.9619 159.82 14.538 161.254 4.11415ZM226.56 4.11415C230.315 4.11989 234.07 4.11415 237.824 4.11415C237.278 8.0389 236.719 11.9579 236.174 15.8827C238.296 15.8827 240.424 15.8827 242.546 15.8827C243.105 11.9579 243.646 8.03316 244.21 4.1084C248.175 4.11415 252.142 4.1084 256.107 4.11415C254.668 14.538 253.234 24.9561 251.793 35.38C247.828 35.38 243.863 35.38 239.897 35.38C240.424 31.6736 240.939 27.9672 241.46 24.2666C239.332 24.2666 237.21 24.2666 235.081 24.2666C234.559 27.9729 234.038 31.6793 233.517 35.3857C229.762 35.3857 226.002 35.3857 222.241 35.3857C223.687 24.9619 225.12 14.5323 226.56 4.11415ZM339.027 4.11415C350.172 4.11415 361.313 4.1084 372.458 4.11415C370.646 6.87815 368.834 9.64214 367.028 12.4004C364.341 12.4004 361.654 12.4004 358.973 12.4004C357.887 20.0603 356.819 27.7201 355.745 35.38C352.022 35.3857 348.298 35.38 344.581 35.38C345.648 27.7201 346.728 20.0603 347.796 12.4004C344.499 12.4004 341.216 12.4004 337.921 12.4004C338.288 9.64214 338.654 6.87815 339.027 4.11415ZM374.246 4.11415C372.799 14.515 371.347 24.9102 369.958 35.3168C371.652 35.2421 373.352 35.311 375.052 35.2881C380.861 35.3226 386.677 35.2249 392.492 35.3399C394.862 35.1674 397.17 33.9261 398.331 31.9782C399.064 30.8059 399.088 29.4154 399.294 28.1052C399.871 24.0482 400.386 19.9798 401 15.9287V14.9633C400.832 13.3428 399.696 11.8717 398.107 11.1879C396.587 10.4639 394.832 10.6075 393.187 10.6018C390.319 10.6018 387.459 10.6018 384.59 10.6018C384.907 8.44116 385.23 6.28052 385.547 4.11989C381.78 4.11415 378.012 4.11415 374.246 4.11415ZM382.302 27.1226C382.698 24.3815 383.096 21.6406 383.493 18.8995C385.442 18.8995 387.39 18.8995 389.339 18.8995C388.953 21.313 388.682 23.7437 388.178 26.1342C388.06 26.502 387.986 27.157 387.428 27.1053C385.72 27.1455 384.014 27.111 382.302 27.1226ZM193.377 11.0442C192.564 16.6527 191.813 22.2668 191.013 27.8811C190.757 29.3118 190.87 30.8347 191.651 32.1161C192.824 34.1618 195.282 35.3455 197.727 35.5065H211.411C215.172 35.0813 218.784 32.6161 219.665 29.105C220.038 27.2489 220.168 25.3641 220.448 23.4967C216.699 23.4967 212.956 23.4967 209.214 23.4967C209.047 24.5138 208.879 25.5309 208.724 26.548C206.589 26.5594 204.46 26.5422 202.332 26.5594C202.996 21.8589 203.759 17.1699 204.417 12.4693C206.583 12.4923 208.748 12.4981 210.915 12.5153C210.753 13.5324 210.599 14.5553 210.436 15.5782C214.173 15.5782 217.904 15.5782 221.645 15.5782C221.875 13.6531 222.185 11.7281 222.39 9.79729C222.532 8.39518 221.993 6.91262 220.826 5.98746C219.132 4.63132 216.798 4.24057 214.621 4.24631C210.493 4.26356 206.36 4.22334 202.233 4.26356C198.118 4.38422 194.034 7.17696 193.377 11.0442ZM259.881 4.24631C258.447 14.6645 257.008 25.0826 255.574 35.5007H283.14C283.507 32.7712 283.873 30.036 284.234 27.3065C278.797 27.3007 273.36 27.3065 267.924 27.3065C268.116 26.0077 268.314 24.7148 268.514 23.4162C273.937 23.4046 279.356 23.3644 284.773 23.3644C285.102 21.0026 285.431 18.6467 285.76 16.2849C280.336 16.2907 274.906 16.3367 269.481 16.3367C269.673 15.038 269.873 13.745 270.071 12.4464C275.502 12.4464 280.925 12.4464 286.356 12.4464C286.722 9.71109 287.087 6.98157 287.448 4.24631C278.262 4.24631 269.072 4.24631 259.881 4.24631ZM290.675 7.74584C291.916 5.55073 294.597 4.21758 297.248 4.26356C307.351 4.2693 317.448 4.25781 327.545 4.2693C329.364 4.29229 331.331 4.1084 332.97 4.99909C334.731 5.84955 335.75 7.7516 335.464 9.56169C334.83 14.3944 334.186 19.2213 333.546 24.0482C333.186 27.1742 329.922 29.5246 326.627 29.5935C322.972 29.6164 319.316 29.5935 315.667 29.5993C315.387 31.5644 315.096 33.5297 314.822 35.4949H303.509C303.844 33.5297 304.111 31.553 304.415 29.582C300.959 29.582 297.501 29.582 294.046 29.582C292.978 29.582 291.892 29.4556 290.929 29.0074C289.372 28.3293 288.187 26.8984 288.038 25.2952C287.945 24.1918 288.217 23.1 288.347 22.0026C288.851 18.3191 289.36 14.6357 289.861 10.9523C289.998 9.872 290.091 8.72848 290.675 7.74584ZM299.661 21.3015C301.604 21.3015 303.546 21.3015 305.488 21.3015C305.991 18.3765 306.413 15.4402 306.742 12.4981C304.781 12.4981 302.82 12.4981 300.866 12.4981C300.462 15.4344 300.059 18.3651 299.661 21.3015ZM316.766 21.3186C318.454 21.3073 320.141 21.3417 321.829 21.3073C322.369 21.3417 322.736 20.8763 322.742 20.4107C323.138 17.779 323.53 15.1529 323.927 12.5268C321.959 12.5268 319.998 12.5268 318.038 12.5268C317.61 15.4517 317.188 18.3881 316.766 21.3186Z" fill="#005A9C"/>
</g>
<defs>
<clipPath id="clip0_765_3759">
<rect width="401" height="41" fill="white"/>
</clipPath>
</defs>
</svg>
