<svg width="285" height="30" viewBox="0 0 285 30" fill="none" xmlns="http://www.w3.org/2000/svg">
<g clip-path="url(#clip0_882_3571)">
<path fill-rule="evenodd" clip-rule="evenodd" d="M30.5019 0.043457H31.7855C32.2943 0.0859753 32.7951 0.171012 33.2998 0.256049C31.9963 2.23895 30.6967 4.22185 29.3811 6.19702C30.2197 4.69341 31.1099 3.22074 31.9605 1.72487C30.0766 1.55093 28.1093 1.94905 26.5433 3.01202C25.7008 3.57634 25.1325 4.42671 24.5681 5.23842C22.9943 7.59626 21.6151 10.0701 20.0811 12.4511C18.9842 14.1596 17.8475 15.8564 16.4485 17.3484C15.7529 18.0558 14.9939 18.7709 14.0281 19.1032C13.1815 19.343 12.2953 19.3391 11.4249 19.4356C12.2675 19.2811 13.1736 19.3198 13.9486 18.9177C15.1449 18.2567 16.0033 17.1668 16.8142 16.1115C19.7035 12.1534 21.651 7.64265 24.2343 3.5029C21.182 1.4543 17.2553 0.692828 13.6386 1.50841C10.638 2.15778 7.92745 3.87784 6.01577 6.20862C5.04603 6.09265 4.06039 6.22021 3.1582 6.57196C4.38629 4.79391 6.00385 3.26712 7.91155 2.18484C10.5028 0.692828 13.5909 0.043457 16.5915 0.337221C19.3975 0.59233 22.104 1.70168 24.2859 3.43333C25.5419 1.30742 28.0775 0.244453 30.5019 0.043457Z" fill="white"/>
<path fill-rule="evenodd" clip-rule="evenodd" d="M1.90127 8.78205C0.836141 11.2868 0.542038 14.1008 1.1064 16.7601C1.64691 19.4774 3.06973 22.0092 5.07282 23.9688C8.80078 27.7878 14.9333 29.0748 19.9807 27.2388C22.4288 26.3421 24.7062 24.8926 26.3198 22.8711C23.8318 23.9649 21.018 24.278 18.3234 23.8721C13.4548 23.1417 8.8127 20.3238 6.42808 16.072C5.44641 14.2708 4.67141 12.1294 5.34307 10.1001C5.70872 9.12219 6.20154 7.98192 7.31834 7.63404C6.34065 7.27844 5.28743 7.02719 4.23821 7.18567C3.26448 7.32096 2.32653 7.90076 1.90127 8.78205Z" fill="white"/>
<path fill-rule="evenodd" clip-rule="evenodd" d="M29.152 9.43982C28.3491 9.53259 27.5185 9.72199 26.8706 10.2129C25.7578 11.0246 24.8516 12.0605 23.9693 13.0964C22.5148 14.8668 20.9806 16.5713 19.4545 18.2836C18.7271 19.0761 17.9124 19.8645 16.8513 20.2124C15.4721 20.657 13.9818 20.6338 12.5669 20.3632C13.4849 20.9391 14.403 21.5267 15.4006 21.9711C17.1891 22.1915 18.9934 21.6503 20.4878 20.711C22.7849 19.3273 24.4662 17.1782 26.8031 15.8485C27.5661 15.3653 28.4008 14.9595 29.3149 14.8436C30.7059 13.1466 32.0254 11.3995 33.337 9.64854C31.9578 9.42823 30.547 9.29294 29.152 9.43982Z" fill="white"/>
<path fill-rule="evenodd" clip-rule="evenodd" d="M29.336 14.8481C30.6913 14.6471 32.0823 14.9293 33.3223 15.4704C31.7762 17.4727 30.2183 19.4787 28.4259 21.2838C26.9394 22.8106 24.7019 23.3517 22.6074 23.4291C20.1433 23.4871 17.6474 23.0077 15.4177 21.9757C17.2062 22.196 19.0106 21.6549 20.5049 20.7156C22.8022 19.3318 24.4833 17.1828 26.8202 15.8531C27.5873 15.3699 28.4218 14.9602 29.336 14.8481Z" fill="white"/>
<path fill-rule="evenodd" clip-rule="evenodd" d="M44.9907 2.95784C51.3902 2.94971 57.7942 2.95378 64.1937 2.95378C63.9344 4.90474 63.6751 6.85976 63.4158 8.81477C61.249 8.81477 59.0776 8.81477 56.9108 8.81477C56.1504 14.2327 55.3899 19.6507 54.6295 25.0686C51.9968 25.0686 49.3596 25.0686 46.7224 25.0686C47.4828 19.6507 48.2433 14.2327 49.0036 8.81477C46.3312 8.8107 43.6589 8.81883 40.9866 8.8107C42.3051 6.85568 43.6633 4.91693 44.9907 2.95784ZM66.5892 2.9741C65.9123 8.71316 65.2399 14.4562 64.5674 20.1953C64.3916 21.8252 64.1015 23.447 63.8686 25.0686C66.5365 25.0686 69.2 25.0686 71.868 25.0686C72.0701 23.6826 72.2636 22.2926 72.4657 20.9066C75.0326 20.9026 77.5995 20.9148 80.1663 20.8985C82.4914 20.866 84.8121 19.2483 85.111 17.0535C85.5726 13.5946 86.0384 10.1357 86.4911 6.67278C86.6977 5.32744 85.8451 3.94144 84.5045 3.39274C83.766 3.05133 82.9266 2.97004 82.1047 2.98629C76.9358 2.98223 71.7625 2.97816 66.5892 2.9741ZM74.1535 8.81883C75.5425 8.81883 76.9314 8.81883 78.3202 8.81883C78.039 10.6641 77.7665 12.5094 77.4852 14.3507C77.4676 14.7123 77.1555 15.0537 76.7467 15.0375C75.5776 15.0619 74.4128 15.0375 73.2437 15.0416C73.5514 12.9686 73.8371 10.8917 74.1535 8.81883ZM92.438 4.16093C92.7062 3.38055 93.594 2.92533 94.4555 2.95378C98.253 2.95784 102.055 2.94971 105.853 2.95784C106.582 2.91719 107.369 3.36835 107.382 4.09997C108.226 11.0908 109.061 18.0818 109.9 25.0686C107.197 25.0686 104.494 25.0686 101.791 25.0686C101.646 23.7883 101.505 22.508 101.361 21.2237C98.7937 21.244 96.2223 21.2806 93.6511 21.305C93.1852 22.5447 92.7633 23.8047 92.2754 25.0403C91.3832 24.9549 90.4821 25.0239 89.5898 25.0036C87.7966 25.0199 86.0077 24.9711 84.2188 25.028C86.9263 18.0615 89.7042 11.1152 92.438 4.16093ZM98.3893 9.60734C97.5674 11.6355 96.7454 13.6678 95.9279 15.6959C97.519 15.6959 99.1101 15.6959 100.701 15.6959C100.464 13.6678 100.213 11.6396 99.9716 9.60734C99.4441 9.60734 98.9167 9.60734 98.3893 9.60734ZM115.03 2.95378C117.694 2.95378 120.353 2.95378 123.016 2.95378C122.621 5.72576 122.233 8.50181 121.843 11.2738C123.346 11.2778 124.849 11.2738 126.352 11.2778C126.752 8.50181 127.135 5.72576 127.53 2.94971C130.339 2.95378 133.152 2.94565 135.96 2.95378C134.936 10.3227 133.925 17.6956 132.901 25.0647C130.093 25.0647 127.288 25.0647 124.48 25.0647C124.845 22.4431 125.218 19.8215 125.583 17.1999C124.08 17.1999 122.573 17.1999 121.069 17.1999C120.7 19.8215 120.33 22.4431 119.966 25.0647C117.306 25.0647 114.643 25.0647 111.98 25.0647C112.995 17.6997 114.014 10.3268 115.03 2.95378ZM161.282 2.95378C163.941 2.95784 166.6 2.95378 169.259 2.95378C168.872 5.72982 168.476 8.50181 168.09 11.2778C169.593 11.2778 171.1 11.2778 172.603 11.2778C172.999 8.50181 173.382 5.72576 173.782 2.94971C176.59 2.95378 179.399 2.94971 182.207 2.95378C181.188 10.3268 180.173 17.6956 179.152 25.0686C176.344 25.0686 173.536 25.0686 170.727 25.0686C171.1 22.447 171.465 19.8254 171.834 17.2079C170.327 17.2079 168.824 17.2079 167.316 17.2079C166.947 19.8295 166.578 22.4511 166.209 25.0727C163.549 25.0727 160.886 25.0727 158.223 25.0727C159.247 17.6997 160.262 10.3227 161.282 2.95378ZM240.934 2.95378C248.827 2.95378 256.717 2.94971 264.611 2.95378C263.327 4.9088 262.044 6.86382 260.765 8.81477C258.862 8.81477 256.959 8.81477 255.06 8.81477C254.291 14.2327 253.535 19.6507 252.774 25.0686C250.138 25.0727 247.5 25.0686 244.867 25.0686C245.623 19.6507 246.388 14.2327 247.144 8.81477C244.81 8.81477 242.484 8.81477 240.151 8.81477C240.41 6.86382 240.67 4.9088 240.934 2.95378ZM265.877 2.95378C264.852 10.3105 263.824 17.6632 262.84 25.0239C264.04 24.9711 265.244 25.0199 266.448 25.0036C270.562 25.028 274.681 24.959 278.799 25.0403C280.478 24.9183 282.113 24.0403 282.935 22.6625C283.454 21.8333 283.471 20.8498 283.617 19.9231C284.025 17.0535 284.39 14.1758 284.825 11.3104V10.6275C284.706 9.48134 283.902 8.44083 282.776 7.95717C281.7 7.44504 280.456 7.54665 279.292 7.54259C277.26 7.54259 275.235 7.54259 273.203 7.54259C273.428 6.01434 273.656 4.48608 273.881 2.95784C271.213 2.95378 268.544 2.95378 265.877 2.95378ZM271.582 19.228C271.863 17.2892 272.145 15.3505 272.426 13.4117C273.806 13.4117 275.186 13.4117 276.567 13.4117C276.293 15.1188 276.101 16.8381 275.744 18.5289C275.66 18.7891 275.608 19.2524 275.213 19.2158C274.003 19.2442 272.795 19.2199 271.582 19.228ZM137.78 7.85555C137.205 11.8225 136.673 15.7935 136.106 19.7645C135.925 20.7765 136.005 21.8537 136.558 22.76C137.389 24.207 139.13 25.0442 140.861 25.1581H150.553C153.216 24.8574 155.774 23.1137 156.398 20.6302C156.662 19.3174 156.755 17.9843 156.953 16.6634C154.298 16.6634 151.647 16.6634 148.996 16.6634C148.878 17.3828 148.759 18.1022 148.65 18.8216C147.137 18.8297 145.63 18.8175 144.123 18.8297C144.593 15.505 145.133 12.1883 145.599 8.86355C147.133 8.8798 148.667 8.88387 150.201 8.89606C150.087 9.61548 149.977 10.339 149.862 11.0625C152.509 11.0625 155.151 11.0625 157.8 11.0625C157.963 9.70083 158.183 8.33923 158.328 6.97355C158.429 5.98182 158.047 4.93318 157.221 4.2788C156.021 3.31958 154.368 3.04319 152.826 3.04725C149.903 3.05946 146.975 3.031 144.052 3.05946C141.138 3.1448 138.246 5.12015 137.78 7.85555ZM184.88 3.04725C183.865 10.4162 182.846 17.7851 181.83 25.154H201.353C201.613 23.2234 201.872 21.2887 202.128 19.3581C198.277 19.354 194.427 19.3581 190.576 19.3581C190.712 18.4394 190.853 17.525 190.994 16.6064C194.835 16.5983 198.673 16.5698 202.51 16.5698C202.743 14.8993 202.976 13.2329 203.208 11.5624C199.368 11.5664 195.521 11.599 191.679 11.599C191.815 10.6804 191.957 9.76587 192.097 8.84729C195.944 8.84729 199.785 8.84729 203.631 8.84729C203.89 6.91259 204.149 4.98195 204.404 3.04725C197.899 3.04725 191.39 3.04725 184.88 3.04725ZM206.69 5.52253C207.568 3.96989 209.467 3.02693 211.344 3.05946C218.5 3.06352 225.651 3.05539 232.802 3.06352C234.09 3.07978 235.483 2.94971 236.644 3.57971C237.892 4.18125 238.613 5.5266 238.411 6.80691C237.962 10.2252 237.505 13.6393 237.052 17.0535C236.797 19.2645 234.486 20.927 232.152 20.9758C229.563 20.992 226.974 20.9758 224.389 20.9798C224.191 22.3698 223.985 23.7599 223.792 25.1499H215.779C216.016 23.7599 216.205 22.3617 216.42 20.9676C213.973 20.9676 211.524 20.9676 209.077 20.9676C208.32 20.9676 207.551 20.8782 206.87 20.5612C205.767 20.0816 204.927 19.0695 204.822 17.9355C204.756 17.1551 204.949 16.3828 205.041 15.6066C205.397 13.0012 205.758 10.3959 206.113 7.79052C206.21 7.0264 206.276 6.21757 206.69 5.52253ZM213.054 15.1107C214.43 15.1107 215.805 15.1107 217.181 15.1107C217.537 13.0418 217.836 10.9649 218.069 8.88387C216.68 8.88387 215.291 8.88387 213.907 8.88387C213.621 10.9608 213.336 13.0337 213.054 15.1107ZM225.168 15.1228C226.363 15.1148 227.558 15.1391 228.754 15.1148C229.136 15.1391 229.396 14.8099 229.4 14.4806C229.681 12.6191 229.959 10.7617 230.24 8.90419C228.846 8.90419 227.457 8.90419 226.069 8.90419C225.766 10.973 225.467 13.05 225.168 15.1228Z" fill="white"/>
</g>
<defs>
<clipPath id="clip0_882_3571">
<rect width="284" height="29" fill="white" transform="translate(0.824951 0.043457)"/>
</clipPath>
</defs>
</svg>
