<?xml version="1.0" standalone="no"?>
<!DOCTYPE svg PUBLIC "-//W3C//DTD SVG 20010904//EN"
 "http://www.w3.org/TR/2001/REC-SVG-20010904/DTD/svg10.dtd">
<svg version="1.0" xmlns="http://www.w3.org/2000/svg"
 width="270" height="130.000000pt" viewBox="0 0 200.000000 200.000000"
 preserveAspectRatio="xMidYMid meet">

<g transform="translate(0.000000,200.000000) scale(0.100000,-0.100000)"
fill="white" stroke="none">
<path d="M660 1762 c-43 -21 -47 -56 -9 -84 33 -25 129 -34 187 -19 133 36 81
121 -75 121 -45 0 -80 -6 -103 -18z"/>
<path d="M960 1705 c0 -8 -14 -24 -31 -34 -19 -12 -25 -20 -17 -23 7 -3 23
-24 36 -47 l24 -41 -36 -15 c-19 -8 -40 -15 -45 -15 -16 0 -23 62 -11 94 9 25
8 28 -7 21 -10 -4 -52 -9 -94 -12 l-77 -6 -6 -48 c-7 -49 -7 -49 -45 -49 l-39
0 -1 -184 -2 -183 35 -30 c19 -17 36 -39 38 -49 2 -14 25 -25 91 -43 48 -14
87 -28 87 -33 0 -5 -12 -6 -27 -3 -25 5 -25 4 -6 -4 14 -7 26 -27 37 -64 16
-55 78 -137 120 -159 19 -10 19 -9 -3 16 -28 30 -22 34 15 10 20 -14 23 -14
19 -2 -9 22 126 141 274 245 3 2 -5 13 -17 26 -26 28 -61 105 -62 135 0 12 -5
22 -10 22 -6 0 -48 -25 -93 -55 -82 -55 -98 -57 -78 -7 8 19 8 45 1 87 -5 33
-10 134 -10 224 0 162 0 166 -26 203 -30 42 -34 45 -34 23z m-15 -590 c-16 -8
-37 -14 -45 -14 -8 0 -1 7 15 14 17 8 37 14 45 14 8 0 2 -7 -15 -14z m-25
-192 c0 -10 -20 -40 -20 -31 0 3 -3 13 -6 22 -4 11 -1 16 10 16 9 0 16 -3 16
-7z"/>
<path d="M536 1677 c-14 -19 -26 -43 -26 -54 0 -40 14 -31 36 24 13 31 22 59
20 61 -2 2 -16 -12 -30 -31z"/>
<path d="M490 1183 c0 -5 12 -20 28 -34 l27 -24 -25 30 c-14 17 -26 32 -27 34
-2 2 -3 0 -3 -6z"/>
<path d="M488 1093 c7 -3 16 -2 19 1 4 3 -2 6 -13 5 -11 0 -14 -3 -6 -6z"/>
<path d="M535 1080 c11 -5 27 -9 35 -9 9 0 8 4 -5 9 -11 5 -27 9 -35 9 -9 0
-8 -4 5 -9z"/>
<path d="M598 1063 c7 -3 16 -2 19 1 4 3 -2 6 -13 5 -11 0 -14 -3 -6 -6z"/>
<path d="M645 1050 c11 -5 27 -9 35 -9 9 0 8 4 -5 9 -11 5 -27 9 -35 9 -9 0
-8 -4 5 -9z"/>
<path d="M715 1031 c11 -4 36 -11 55 -15 24 -4 29 -3 15 3 -11 4 -36 11 -55
15 -24 4 -29 3 -15 -3z"/>
<path d="M1215 894 c-88 -58 -167 -111 -176 -119 -8 -8 -18 -13 -21 -10 -2 3
-1 -19 3 -48 4 -28 8 -158 8 -288 l1 -236 148 -9 c81 -5 224 -9 317 -9 153 0
174 2 210 21 46 24 55 61 19 79 l-21 10 24 35 c50 72 79 175 67 243 -8 50 -79
155 -109 163 -29 7 -91 -12 -98 -30 -3 -7 -1 -19 4 -27 16 -26 10 -39 -21 -39
-37 0 -51 -21 -80 -117 -12 -40 -25 -71 -28 -69 -4 2 -74 25 -157 51 -82 27
-158 53 -167 59 -21 13 -24 55 -5 77 6 9 24 23 40 32 15 10 27 21 27 26 0 9
-51 36 -62 33 -15 -4 -8 33 10 56 18 23 19 23 83 8 35 -8 125 -33 199 -55 144
-44 150 -45 150 -33 0 5 -76 30 -170 56 -176 50 -212 74 -94 62 l64 -7 0 96
c0 52 -1 95 -2 95 -2 0 -75 -48 -163 -106z m41 -450 c77 -19 156 -39 176 -45
22 -6 39 -17 43 -29 5 -17 15 -20 59 -20 50 0 54 -2 66 -30 7 -17 20 -35 29
-40 14 -8 14 -11 1 -20 -39 -26 -83 -23 -234 18 -83 23 -164 44 -179 48 -15 4
-36 17 -45 31 -9 14 -29 40 -44 58 -27 32 -37 65 -19 65 5 0 71 -16 147 -36z"/>
</g>
</svg>
