<svg width="1050" height="646" fill="none" xmlns="http://www.w3.org/2000/svg"><path d="M.6 523.7v-90L180.6 8h108v425.7h46.8v90h-46.8V638h-97.2V523.7H.6Zm90.9-90h99.9V197L91.5 433.7Zm380.236-280.8v340.2c0 45 19.8 62.1 51.3 62.1 31.5 0 51.3-17.1 51.3-62.1V152.9c0-45-19.8-62.1-51.3-62.1-31.5 0-51.3 17.1-51.3 62.1Zm-99 333.9V159.2c0-100.8 53.1-158.4 150.3-158.4 97.2 0 150.3 57.6 150.3 158.4v327.6c0 100.8-53.1 158.4-150.3 158.4-97.2 0-150.3-57.6-150.3-158.4Zm341.536 36.9v-90l180-425.7h107.998v425.7h46.8v90h-46.8V638h-97.198V523.7h-190.8Zm90.9-90h99.9V197l-99.9 236.7Z" fill="#fff" fill-opacity=".03"/></svg>